<svg width="642" height="391" viewBox="0 0 642 391" fill="none" xmlns="http://www.w3.org/2000/svg">
<g clip-path="url(#clip0_0:13)">
<path d="M447.467 187.339C447.467 187.339 421.641 182.108 424.91 193.223C428.18 204.338 449.756 197.146 449.756 197.146L447.467 187.339Z" fill="#FFB8B8"/>
<path d="M503.184 128.63C503.505 128.337 503.899 128.137 504.325 128.049C504.751 127.961 505.192 127.99 505.603 128.132C506.014 128.273 506.379 128.523 506.661 128.854C506.942 129.185 507.129 129.586 507.202 130.015L508.085 135.141C508.085 135.141 512.075 155.648 508.659 168.675C505.242 181.701 502.817 198.86 493.584 200.688C485.683 202.252 455.641 199.775 447.136 199.028C446.523 198.974 445.955 198.689 445.544 198.231C445.134 197.773 444.914 197.176 444.928 196.561L445.087 189.079C445.1 188.489 445.327 187.924 445.725 187.49C446.124 187.056 446.668 186.782 447.254 186.719L481.649 183.051C482.187 182.995 482.689 182.76 483.078 182.385C483.466 182.01 483.718 181.515 483.793 180.98C484.611 175.129 487.256 156.987 489.884 147.449C492.008 139.741 498.982 132.464 503.184 128.63Z" fill="#575A89"/>
<path d="M480.834 347.34V363.032L489.661 364.993L495.545 362.051L494.892 349.628L480.834 347.34Z" fill="#FFB8B8"/>
<path d="M532.976 347.34V363.032L541.803 364.993L547.688 362.051L547.034 349.628L532.976 347.34Z" fill="#FFB8B8"/>
<path d="M498.488 219.845C498.488 219.845 486.719 243.709 487.046 262.343C487.242 273.591 486.696 284.839 485.411 296.015L479.527 351.917L498.488 352.897L507.314 292.746L524.313 246.324L530.852 301.572L532.486 357.147H548.832C548.832 357.147 556.351 304.515 552.101 292.746C552.101 292.746 561.908 226.71 554.062 223.441C546.216 220.172 498.488 219.845 498.488 219.845Z" fill="#2F2E41"/>
<path d="M486.719 358.782C486.719 358.782 483.45 346.686 478.873 352.897C474.296 359.109 461.22 369.57 461.22 369.57C461.22 369.57 441.605 380.031 459.585 382.646C477.565 385.262 479.527 379.377 479.527 379.377C479.527 379.377 482.469 377.743 485.084 378.723C487.699 379.704 499.141 379.377 499.795 375.454C500.449 371.531 496.199 349.955 494.891 353.878C493.584 357.801 486.719 358.782 486.719 358.782Z" fill="#2F2E41"/>
<path d="M546.87 358.455C546.87 358.455 546.87 354.859 540.659 354.532C534.448 354.205 533.467 358.455 533.467 358.455C533.467 358.455 531.832 360.089 531.505 364.993C531.179 369.897 531.505 382.646 531.505 382.646C531.505 382.646 528.563 392.454 541.967 390.492C555.37 388.531 550.466 378.396 550.466 378.396L546.87 358.455Z" fill="#2F2E41"/>
<path d="M523.006 97.9071L521.371 116.214L518.429 123.079L526.275 134.194L545.563 116.214C545.563 116.214 541.967 106.407 544.255 100.849L523.006 97.9071Z" fill="#FFB8B8"/>
<path d="M566.812 129.291L566.661 130.902L560.927 192.057C560.927 192.057 560.702 194.902 560.283 198.694C559.577 205.108 558.322 214.232 556.678 216.903C554.062 221.152 556.024 224.748 556.024 224.748C540.986 233.575 496.526 220.826 496.526 220.826L506.66 180.289C506.66 180.289 497.507 138.117 498.488 134.194C499.468 130.271 520.064 116.214 520.064 116.214L520.672 117.849C529.449 129.617 538.371 119.483 540.986 117.195L546.216 112.618L566.812 129.291Z" fill="#575A89"/>
<path d="M499.584 241.458C468.417 245.686 438.684 247.234 411.171 244.631C401.401 243.64 391.711 241.976 382.17 239.651C364.676 235.51 343.202 235.51 319.609 237.714C305.265 238.992 291.126 241.991 277.498 246.646C259.215 252.975 239.186 252.427 217.951 247.129C209.236 244.859 200.837 241.515 192.947 237.173C177.423 228.83 159.049 231.851 139.025 241.458V166.859C157.72 158.718 175.932 157.403 193.566 164.267C199.995 166.834 206.642 168.817 213.426 170.191C237.933 174.981 263.231 173.839 287.206 166.859C319.628 155.874 353.542 159.289 387.887 166.859C426.151 174.941 463.444 175.418 499.584 166.859V241.458Z" fill="#3F3D56"/>
<path d="M293.767 28.1537L311.616 17.8487L301.311 5.85242e-06L283.462 10.305L293.767 28.1537Z" fill="#FF6584"/>
<path d="M227.645 118.011L245.494 107.706L235.189 89.8574L217.34 100.162L227.645 118.011Z" fill="#3F3D56"/>
<path d="M409.056 94.2752L426.904 83.9702L416.599 66.1215L398.751 76.4265L409.056 94.2752Z" fill="#D0CDE1"/>
<path d="M101.075 239.393L111.868 289.358L79.0909 362.905L98.2774 371.3L135.051 286.959L111.543 212.89L97.5529 216.487L101.075 239.393Z" fill="#2F2E41"/>
<path d="M91.4822 225.655C91.4822 225.655 95.4794 232.85 104.273 238.846C113.067 244.841 131.454 284.413 131.454 284.413L111.468 364.357L139.049 371.951L154.238 278.018L123.06 207.668L91.4822 225.655Z" fill="#2F2E41"/>
<path d="M81.4893 360.107C81.4893 360.107 77.4921 364.504 79.091 367.702C80.6899 370.9 81.4893 379.294 81.4893 379.294H85.0868V369.701L96.6786 380.493C96.6786 380.493 123.46 382.891 123.06 380.493C122.66 378.095 107.071 372.499 107.071 372.499L99.4766 360.907L81.4893 360.107Z" fill="#2F2E41"/>
<path d="M116.664 361.159C116.664 361.159 112.667 365.556 114.266 368.754C115.865 371.951 116.664 380.345 116.664 380.345H120.262V370.752L131.854 381.545C131.854 381.545 158.635 383.943 158.235 381.545C157.835 379.146 142.246 373.55 142.246 373.55L134.652 361.959L116.664 361.159Z" fill="#2F2E41"/>
<path d="M107.071 116.132C115.46 116.132 122.26 109.332 122.26 100.943C122.26 92.5544 115.46 85.754 107.071 85.754C98.6824 85.754 91.882 92.5544 91.882 100.943C91.882 109.332 98.6824 116.132 107.071 116.132Z" fill="#A0616A"/>
<path d="M94.68 101.743C94.68 101.743 93.4808 116.932 85.8862 122.528C78.2916 128.124 78.2916 132.921 78.2916 132.921L109.07 146.911L101.875 131.721C101.875 131.721 99.8763 130.922 103.074 126.925C106.272 122.928 109.07 113.334 109.07 113.334L94.68 101.743Z" fill="#A0616A"/>
<path d="M126.058 209.466C117.741 216.727 108.106 222.32 97.6772 225.941L90.4225 228.46C90.4225 228.46 75.0818 209.842 82.8283 195.173C84.4198 192.072 86.6956 189.374 89.4836 187.282L89.3237 186.583L85.4345 169.615L85.0868 168.096L73.495 165.298C73.495 165.298 73.459 165.31 73.391 165.326C72.5237 165.554 66.6438 166.633 71.0967 152.906C74.0589 143.773 76.2067 135.077 77.4163 129.761C77.5838 129.019 77.8997 128.318 78.345 127.701C78.7904 127.084 79.3559 126.563 80.0077 126.17C80.6595 125.778 81.384 125.521 82.1377 125.415C82.8913 125.31 83.6585 125.358 84.3931 125.557C88.1049 126.574 92.7159 128.507 95.4794 132.121C100.676 138.916 101.725 131.821 101.725 131.821C101.725 131.821 116.265 148.11 115.465 155.305C115.328 157.235 115.387 159.174 115.641 161.093V161.101C115.737 161.956 115.853 162.847 115.985 163.759C116.976 170.49 118.895 178.312 119.598 181.063C119.65 181.258 119.694 181.43 119.73 181.574C119.814 181.906 119.862 182.086 119.862 182.086L126.058 209.466Z" fill="#575A89"/>
<path opacity="0.2" d="M105.472 189.281L102.275 200.073C102.275 200.073 90.0113 196.947 82.8283 195.173C84.4198 192.072 86.6956 189.374 89.4836 187.282L89.3237 186.583L85.4345 169.615L85.0868 168.096L73.495 165.298C73.495 165.298 73.4589 165.31 73.391 165.326L72.6955 160.101C72.6955 160.101 92.6814 161.3 93.8805 166.097C95.0797 170.894 92.6814 175.69 91.4822 176.49C90.2831 177.289 91.4822 176.49 93.8805 177.689C96.2788 178.888 93.0811 177.689 91.4822 180.087C89.8834 182.486 91.8819 180.487 92.2817 181.686C92.6814 182.885 92.2817 181.286 91.8819 183.285C91.4822 185.284 93.4808 183.685 93.8805 183.685C94.2803 183.685 105.472 189.281 105.472 189.281Z" fill="black"/>
<path d="M101.875 187.282L127.856 194.077C127.856 194.077 141.847 179.687 149.441 184.084C157.036 188.481 135.851 198.474 135.851 198.474L128.256 200.073L100.676 196.875L101.875 187.282Z" fill="#A0616A"/>
<path d="M72.6955 158.502L74.2944 170.494C74.2944 170.494 73.0952 170.494 74.2944 173.292C75.4935 176.09 74.2944 181.686 74.2944 181.686C74.2944 181.686 71.8961 182.086 73.8947 183.285C75.8933 184.484 77.8918 187.682 77.0924 188.881C76.293 190.08 74.6941 191.679 78.2916 192.478C81.889 193.278 102.275 198.474 102.275 198.474L105.472 187.682C105.472 187.682 94.2803 182.086 93.8805 182.086C93.4808 182.086 91.4822 183.685 91.8819 181.686C92.2817 179.687 92.6814 181.286 92.2817 180.087C91.8819 178.888 89.8834 180.887 91.4822 178.488C93.0811 176.09 96.2788 177.289 93.8805 176.09C91.4822 174.891 90.2831 175.69 91.4822 174.891C92.6814 174.091 95.0797 169.295 93.8805 164.498C92.6814 159.702 72.6955 158.502 72.6955 158.502Z" fill="#575A89"/>
<path d="M103.568 127.786L104.773 125.871C105.337 124.973 105.522 123.888 105.287 122.854C105.051 121.82 104.415 120.922 103.517 120.357L94.3396 114.586C93.4419 114.021 92.3568 113.836 91.3229 114.072C90.289 114.307 89.391 114.944 88.8264 115.841L87.6219 117.757C86.9435 117.753 86.2754 117.923 85.6807 118.249C85.086 118.576 84.5844 119.048 84.2231 119.622L81.2593 124.335C80.6948 125.232 80.51 126.318 80.7455 127.352C80.981 128.385 81.6176 129.283 82.5153 129.848L94.8819 137.626C95.7795 138.19 96.8646 138.375 97.8986 138.14C98.9325 137.904 99.8305 137.267 100.395 136.37L103.359 131.657C103.72 131.083 103.929 130.426 103.965 129.749C104.002 129.071 103.865 128.396 103.568 127.786Z" fill="#575A89"/>
<path d="M106.542 100.682C107.392 99.441 107.019 97.7166 107.627 96.3409C108.582 94.1807 111.398 93.7375 113.756 93.5954C115.32 93.4331 116.897 93.4755 118.45 93.7216C119.136 93.8528 119.781 94.1413 120.336 94.5646C120.892 94.988 121.341 95.5344 121.648 96.161C121.98 96.8675 121.945 94.6781 121.79 91.8649C121.633 88.9941 120.57 86.2471 118.752 84.0196C116.934 81.7922 114.456 80.1993 111.675 79.4705C111.642 79.4619 111.609 79.4534 111.577 79.4451C108.728 78.7149 105.786 78.1571 102.858 78.4293C99.9303 78.7016 96.9896 79.8915 95.1116 82.1543C94.2533 83.1886 93.6343 84.4177 92.6811 85.3652C91.0065 87.0301 88.57 87.5916 86.3265 88.3286C83.7565 89.0891 81.3771 90.3862 79.3452 92.1341C77.3065 93.9086 76.0493 96.4151 75.8462 99.1103C75.7238 102.223 77.6268 105.485 80.8038 106.176C81.3565 106.286 81.8754 106.525 82.3184 106.874C85.3089 109.311 81.7723 111.7 81.732 114.361C81.6983 116.581 84.1345 118.088 86.3495 118.245C88.4218 118.333 90.46 117.697 92.1147 116.446C93.7695 115.196 94.9379 113.409 95.4195 111.391C95.7979 109.578 95.5851 107.7 95.4122 105.856C95.2142 103.744 99.8685 98.8962 96.7853 102.458C96.184 103.134 95.7692 103.955 95.5818 104.841C95.013 107.732 97.6311 108.772 99.2581 110.421C100.151 111.353 100.764 112.517 101.029 113.78C101.294 115.043 101.2 116.355 100.757 117.567C102.161 116.356 103.098 114.693 103.406 112.864C103.715 111.036 103.375 109.157 102.447 107.552C101.93 106.716 101.256 105.984 100.767 105.131C100.005 103.8 99.8552 100.942 102.076 101.074C103.661 101.169 105.277 102.529 106.542 100.682Z" fill="#2F2E41"/>
<path d="M534.121 106.734C543.329 106.734 550.793 99.2692 550.793 90.0612C550.793 80.8533 543.329 73.3888 534.121 73.3888C524.913 73.3888 517.448 80.8533 517.448 90.0612C517.448 99.2692 524.913 106.734 534.121 106.734Z" fill="#FFB8B8"/>
<path opacity="0.2" d="M566.008 131.556L560.274 192.711C560.274 192.711 560.048 195.555 559.63 199.348C547.459 202.257 513.852 204.48 513.852 204.48L512.218 192.711L549.486 182.577C549.486 182.577 544.909 157.078 550.139 146.617C551.42 144.072 552.566 141.461 553.572 138.795C554.488 136.337 556.228 134.272 558.495 132.952C560.763 131.632 563.417 131.139 566.008 131.556V131.556Z" fill="black"/>
<path d="M515.814 191.077C515.814 191.077 489.988 185.846 493.257 196.961C496.526 208.076 518.102 200.884 518.102 200.884L515.814 191.077Z" fill="#FFB8B8"/>
<path d="M556.678 127.656L566.812 129.291C566.812 129.291 574.004 148.905 572.696 162.308C571.389 175.712 571.715 193.038 562.889 196.307C554.062 199.576 514.506 202.192 514.506 202.192L512.872 190.423L550.139 180.289C550.139 180.289 545.563 154.79 550.793 144.328C556.024 133.867 556.678 127.656 556.678 127.656Z" fill="#575A89"/>
<path d="M519.906 73.1277L516.701 71.8448C516.701 71.8448 523.401 64.4681 532.724 65.1096L530.102 62.223C530.102 62.223 536.511 59.6573 542.337 66.3924C545.4 69.933 548.944 74.0947 551.153 78.7828H554.585L553.152 81.9366L558.165 85.0904L553.02 84.5239C553.326 86.2509 553.374 88.0141 553.159 89.755C552.939 91.4965 552.05 93.0841 550.681 94.1827C550.681 94.1827 546.707 85.9566 546.707 84.6737V87.8809C546.707 87.8809 543.502 84.9944 543.502 83.0701L541.754 85.3151H530.102L531.85 82.4286L525.149 83.3908L527.771 79.8628L517.397 94.4311C517.397 94.4311 511.457 77.9385 519.906 73.1277Z" fill="#2F2E41"/>
<path d="M319.305 266.324C353.013 266.324 380.34 238.998 380.34 205.289C380.34 171.58 353.013 144.254 319.305 144.254C285.596 144.254 258.269 171.58 258.269 205.289C258.269 238.998 285.596 266.324 319.305 266.324Z" fill="#C0A3FF"/>
<path d="M349.257 217.42C349.257 221.165 335.505 230.56 319.587 230.56C303.669 230.56 291.613 221.165 291.613 217.42C291.613 213.675 303.669 218.692 319.587 218.692C335.505 218.692 349.257 213.675 349.257 217.42Z" fill="#D0CDE1"/>
<path d="M341.345 194.551C345.09 194.551 348.127 191.515 348.127 187.77C348.127 184.024 345.09 180.988 341.345 180.988C337.6 180.988 334.563 184.024 334.563 187.77C334.563 191.515 337.6 194.551 341.345 194.551Z" fill="#3F3D56"/>
<path d="M297.264 194.551C301.01 194.551 304.046 191.515 304.046 187.77C304.046 184.024 301.01 180.988 297.264 180.988C293.519 180.988 290.482 184.024 290.482 187.77C290.482 191.515 293.519 194.551 297.264 194.551Z" fill="#3F3D56"/>
<path d="M301.22 187.77C303.093 187.77 304.611 186.252 304.611 184.379C304.611 182.506 303.093 180.988 301.22 180.988C299.347 180.988 297.829 182.506 297.829 184.379C297.829 186.252 299.347 187.77 301.22 187.77Z" fill="#D0CDE1"/>
<path d="M335.694 187.77C337.566 187.77 339.085 186.252 339.085 184.379C339.085 182.506 337.566 180.988 335.694 180.988C333.821 180.988 332.303 182.506 332.303 184.379C332.303 186.252 333.821 187.77 335.694 187.77Z" fill="#D0CDE1"/>
<path d="M320.435 148.21C333.856 148.21 344.736 137.33 344.736 123.909C344.736 110.488 333.856 99.6077 320.435 99.6077C307.014 99.6077 296.134 110.488 296.134 123.909C296.134 137.33 307.014 148.21 320.435 148.21Z" fill="#C0A3FF"/>
<path d="M312.631 126.424C321.213 131.533 321.521 146.844 321.521 146.844C321.521 146.844 307.915 153.871 299.332 148.762C290.75 143.653 290.442 128.342 290.442 128.342C290.442 128.342 304.049 121.315 312.631 126.424Z" fill="#3F3D56"/>
<path d="M342.993 145.991C335.237 152.284 320.76 147.292 320.76 147.292C320.76 147.292 318.858 132.097 326.614 125.804C334.37 119.511 348.847 124.503 348.847 124.503C348.847 124.503 350.749 139.699 342.993 145.991Z" fill="#3F3D56"/>
</g>
<defs>
<clipPath id="clip0_0:13">
<rect width="642" height="390.751" fill="white"/>
</clipPath>
</defs>
</svg>
