<svg width="350" height="68" viewBox="0 0 350 68" fill="none" xmlns="http://www.w3.org/2000/svg">
<path d="M29.7962 0.249069C29.3838 0.361542 28.1091 1.26134 26.9844 2.19862C25.8596 3.1734 20.3109 7.55989 14.6872 11.9464C3.47726 20.7194 2.20255 21.8441 0.890354 24.431C-0.721778 27.6178 -0.571812 28.5551 4.97692 45.1638C7.75128 53.4119 10.2632 60.6852 10.6006 61.3226C11.5379 63.1222 14.3123 65.4466 16.6368 66.3089C19.6736 67.4337 23.5352 67.3962 26.1221 66.159C27.9217 65.3342 31.8583 62.1099 31.8583 61.4726C31.8583 61.0976 28.5965 57.7234 28.2216 57.7234C28.0341 57.7234 27.2843 58.3233 26.572 59.0731C24.8099 60.9102 23.6102 61.4726 21.3607 61.4726C18.7363 61.4726 17.0117 60.5728 15.6245 58.4732C14.9121 57.3485 5.61427 29.9798 5.61427 29.005C5.61427 28.5926 5.9517 27.6178 6.32661 26.793C6.85149 25.5558 9.06348 23.6437 18.3614 16.2954C24.6224 11.3465 30.3211 6.92254 31.0709 6.47264C31.9707 5.91027 33.0205 5.61034 34.1827 5.61034C35.8324 5.61034 36.2073 5.83529 41.2311 9.77189C61.1391 25.2933 62.2263 26.2681 62.2263 28.9675C62.2263 29.4549 60.5392 34.8911 58.4397 41.0772C56.3777 47.2258 54.2406 53.5619 53.7158 55.099C53.1909 56.6362 52.4411 58.3608 52.0287 58.9606C50.4165 61.2476 46.3674 62.1474 43.6306 60.8727C42.3184 60.2353 20.1235 37.8905 19.2612 36.3158C18.5488 35.0036 18.6238 32.2292 19.4486 30.7296C21.3232 27.1679 26.272 26.6055 29.1589 29.6798L29.9837 30.5796L29.0089 31.5169C25.5222 34.7037 25.9721 40.5523 29.9087 43.2892C31.2959 44.2265 31.8958 44.414 33.8453 44.414C36.5447 44.414 38.1193 43.6641 39.8439 41.4896C41.3436 39.69 41.681 36.3533 40.6688 34.0663C40.2938 33.279 39.8814 32.6042 39.769 32.6042C39.2066 32.6042 35.6824 36.5033 35.8699 36.9907C36.1698 37.7405 34.8951 38.9777 33.8828 38.9777C33.0955 38.9777 31.8583 37.7405 31.8583 36.9532C31.8583 36.4283 39.4315 28.855 40.5563 28.2552C41.8685 27.5803 44.7178 27.5803 46.105 28.2926C48.542 29.5674 49.8541 32.6417 49.0293 35.3035C48.6544 36.5408 47.6422 37.8155 44.7928 40.7023C42.7308 42.7643 39.8814 45.6512 38.4942 47.1133L35.9448 49.7752L37.8194 51.7623L39.694 53.7493L46.105 47.1883C53.9782 39.2027 54.9155 37.628 54.6531 33.0541C54.3906 28.4801 52.2911 25.2558 48.4295 23.3438C46.6299 22.444 45.8051 22.294 43.2932 22.294C39.9189 22.294 38.0069 23.0064 35.345 25.2933L33.8453 26.568L32.7581 25.4433C32.1582 24.8059 30.846 23.8312 29.7962 23.3063C28.1841 22.444 27.4718 22.294 24.7349 22.294C20.9858 22.294 19.0362 23.0438 16.6742 25.3683C14.2748 27.6928 13.3375 29.9798 13.3375 33.5414C13.3375 38.5278 13.5625 38.8277 27.4718 52.887C41.4186 66.9838 41.2686 66.9088 46.6674 66.9088C51.0914 66.9088 52.7785 66.3464 55.0655 64.1719L56.94 62.4098L62.0389 47.7882C66.0879 36.2783 67.2502 32.4542 67.5876 29.8673L68 26.5306L66.7253 24.0936C65.938 22.6689 64.7008 21.0943 63.726 20.2695C59.452 16.7078 39.2816 1.11137 38.2693 0.586487C37.182 -0.0133743 31.6333 -0.200829 29.7962 0.249069Z" fill="#250074"/>
<path d="M90.568 40.226C91.7693 40.226 92.6193 40.022 93.118 39.614C93.6393 39.1833 93.9 38.6733 93.9 38.084C93.9 37.54 93.696 37.1093 93.288 36.792C92.9027 36.452 92.3133 36.1573 91.52 35.908L89.786 35.364C88.834 35.0693 87.9727 34.752 87.202 34.412C86.4313 34.0493 85.774 33.63 85.23 33.154C84.686 32.6553 84.2553 32.0773 83.938 31.42C83.6433 30.74 83.496 29.924 83.496 28.972C83.496 27.068 84.21 25.5607 85.638 24.45C87.0887 23.3393 89.0947 22.784 91.656 22.784C92.6307 22.784 93.526 22.852 94.342 22.988C95.1807 23.124 95.8947 23.3393 96.484 23.634C97.0733 23.906 97.538 24.246 97.878 24.654C98.218 25.062 98.388 25.538 98.388 26.082C98.388 26.6033 98.252 27.068 97.98 27.476C97.7307 27.8613 97.436 28.19 97.096 28.462C96.5747 28.0993 95.8833 27.7933 95.022 27.544C94.1607 27.2947 93.22 27.17 92.2 27.17C91.112 27.17 90.3073 27.34 89.786 27.68C89.2647 28.02 89.004 28.4507 89.004 28.972C89.004 29.4253 89.174 29.7767 89.514 30.026C89.854 30.2527 90.3867 30.4907 91.112 30.74L92.948 31.352C94.0133 31.7147 94.9427 32.1113 95.736 32.542C96.552 32.95 97.232 33.426 97.776 33.97C98.32 34.4913 98.728 35.1033 99 35.806C99.272 36.486 99.408 37.268 99.408 38.152C99.408 39.104 99.2153 39.9767 98.83 40.77C98.4673 41.5407 97.912 42.2093 97.164 42.776C96.4387 43.3427 95.532 43.7847 94.444 44.102C93.3787 44.4193 92.1433 44.578 90.738 44.578C89.6953 44.578 88.732 44.4873 87.848 44.306C86.964 44.1473 86.1933 43.9093 85.536 43.592C84.9013 43.2747 84.3913 42.8893 84.006 42.436C83.6433 41.96 83.462 41.4273 83.462 40.838C83.462 40.226 83.632 39.716 83.972 39.308C84.3347 38.9 84.7313 38.5713 85.162 38.322C85.774 38.8207 86.5333 39.2627 87.44 39.648C88.3693 40.0333 89.412 40.226 90.568 40.226ZM109.597 40.702C110.095 40.702 110.583 40.6567 111.059 40.566C111.557 40.4527 111.931 40.3167 112.181 40.158V37.03L109.393 37.268C108.667 37.336 108.078 37.506 107.625 37.778C107.194 38.0273 106.979 38.4127 106.979 38.934C106.979 39.478 107.183 39.9087 107.591 40.226C107.999 40.5433 108.667 40.702 109.597 40.702ZM109.393 27.136C110.571 27.136 111.637 27.2607 112.589 27.51C113.563 27.7367 114.391 28.0993 115.071 28.598C115.751 29.0967 116.272 29.7313 116.635 30.502C117.02 31.2727 117.213 32.1793 117.213 33.222V40.906C117.213 41.4953 117.054 41.9713 116.737 42.334C116.442 42.674 116.079 42.9687 115.649 43.218C114.946 43.6487 114.085 43.9773 113.065 44.204C112.045 44.4307 110.889 44.544 109.597 44.544C107.262 44.544 105.403 44.102 104.021 43.218C102.638 42.3113 101.947 40.94 101.947 39.104C101.947 37.54 102.411 36.35 103.341 35.534C104.27 34.718 105.698 34.208 107.625 34.004L112.147 33.528V33.154C112.147 32.4287 111.852 31.896 111.263 31.556C110.673 31.216 109.823 31.046 108.713 31.046C107.851 31.046 107.001 31.148 106.163 31.352C105.347 31.556 104.61 31.794 103.953 32.066C103.681 31.8847 103.443 31.6127 103.239 31.25C103.057 30.8647 102.967 30.4567 102.967 30.026C102.967 29.0287 103.488 28.3147 104.531 27.884C105.188 27.6347 105.947 27.4533 106.809 27.34C107.693 27.204 108.554 27.136 109.393 27.136ZM126.024 28.836H131.804C131.917 29.0627 132.031 29.346 132.144 29.686C132.28 30.026 132.348 30.4 132.348 30.808C132.348 31.5333 132.178 32.0547 131.838 32.372C131.521 32.6893 131.101 32.848 130.58 32.848H126.262V43.966C126.035 44.034 125.718 44.0907 125.31 44.136C124.902 44.204 124.449 44.238 123.95 44.238C122.93 44.238 122.193 44.0793 121.74 43.762C121.287 43.422 121.06 42.776 121.06 41.824V27.374C121.06 26.2633 121.241 25.3 121.604 24.484C121.989 23.668 122.511 23.0107 123.168 22.512C123.825 21.9907 124.596 21.6053 125.48 21.356C126.364 21.1067 127.316 20.982 128.336 20.982C129.945 20.982 131.135 21.1973 131.906 21.628C132.699 22.036 133.096 22.716 133.096 23.668C133.096 24.0987 133.005 24.484 132.824 24.824C132.665 25.1413 132.473 25.3907 132.246 25.572C131.815 25.436 131.351 25.3227 130.852 25.232C130.376 25.1413 129.832 25.096 129.22 25.096C128.177 25.096 127.384 25.2887 126.84 25.674C126.296 26.0367 126.024 26.66 126.024 27.544V28.836ZM138.992 37.982C139.309 38.934 139.865 39.614 140.658 40.022C141.451 40.4073 142.369 40.6 143.412 40.6C144.364 40.6 145.259 40.4753 146.098 40.226C146.937 39.954 147.617 39.6593 148.138 39.342C148.478 39.5687 148.761 39.8633 148.988 40.226C149.215 40.5887 149.328 40.9853 149.328 41.416C149.328 41.9373 149.169 42.3907 148.852 42.776C148.535 43.1613 148.093 43.49 147.526 43.762C146.982 44.0113 146.325 44.1927 145.554 44.306C144.806 44.442 143.979 44.51 143.072 44.51C141.735 44.51 140.499 44.3287 139.366 43.966C138.233 43.5807 137.258 43.0253 136.442 42.3C135.626 41.552 134.98 40.6227 134.504 39.512C134.051 38.4013 133.824 37.098 133.824 35.602C133.824 34.1513 134.051 32.8933 134.504 31.828C134.98 30.7627 135.603 29.8787 136.374 29.176C137.167 28.4733 138.063 27.9633 139.06 27.646C140.08 27.306 141.123 27.136 142.188 27.136C143.344 27.136 144.398 27.3173 145.35 27.68C146.325 28.02 147.152 28.5073 147.832 29.142C148.535 29.7767 149.079 30.536 149.464 31.42C149.849 32.304 150.042 33.2673 150.042 34.31C150.042 35.0353 149.849 35.5793 149.464 35.942C149.079 36.3047 148.535 36.5427 147.832 36.656L138.992 37.982ZM142.222 30.978C141.247 30.978 140.431 31.284 139.774 31.896C139.139 32.4853 138.765 33.3467 138.652 34.48L145.146 33.426C145.101 32.8367 144.84 32.2813 144.364 31.76C143.888 31.2387 143.174 30.978 142.222 30.978ZM169.488 26.252C169.488 26.7733 169.352 27.238 169.08 27.646C168.808 28.0313 168.491 28.3373 168.128 28.564C167.539 28.1787 166.893 27.8387 166.19 27.544C165.51 27.2493 164.694 27.102 163.742 27.102C161.929 27.102 160.512 27.68 159.492 28.836C158.472 29.9693 157.962 31.59 157.962 33.698C157.962 35.874 158.495 37.5173 159.56 38.628C160.648 39.716 162.133 40.26 164.014 40.26C164.989 40.26 165.816 40.1353 166.496 39.886C167.199 39.614 167.845 39.2967 168.434 38.934C168.774 39.206 169.046 39.5573 169.25 39.988C169.477 40.396 169.59 40.8607 169.59 41.382C169.59 41.8353 169.465 42.266 169.216 42.674C168.989 43.0593 168.581 43.388 167.992 43.66C167.539 43.8867 166.927 44.0907 166.156 44.272C165.385 44.476 164.433 44.578 163.3 44.578C161.781 44.578 160.365 44.3627 159.05 43.932C157.735 43.5013 156.591 42.844 155.616 41.96C154.641 41.076 153.871 39.954 153.304 38.594C152.76 37.2113 152.488 35.5793 152.488 33.698C152.488 31.93 152.76 30.366 153.304 29.006C153.871 27.646 154.63 26.5127 155.582 25.606C156.534 24.6767 157.645 23.974 158.914 23.498C160.183 23.022 161.543 22.784 162.994 22.784C165.057 22.784 166.655 23.1127 167.788 23.77C168.921 24.4273 169.488 25.2547 169.488 26.252ZM188.718 35.806C188.718 37.1433 188.514 38.356 188.106 39.444C187.698 40.5093 187.108 41.416 186.338 42.164C185.59 42.912 184.683 43.49 183.618 43.898C182.552 44.306 181.362 44.51 180.048 44.51C178.733 44.51 177.532 44.3173 176.444 43.932C175.378 43.524 174.46 42.946 173.69 42.198C172.942 41.45 172.364 40.5433 171.956 39.478C171.548 38.39 171.344 37.166 171.344 35.806C171.344 34.4913 171.548 33.3013 171.956 32.236C172.386 31.148 172.976 30.23 173.724 29.482C174.494 28.734 175.412 28.156 176.478 27.748C177.566 27.34 178.756 27.136 180.048 27.136C181.34 27.136 182.518 27.34 183.584 27.748C184.649 28.156 185.556 28.7453 186.304 29.516C187.074 30.264 187.664 31.1707 188.072 32.236C188.502 33.3013 188.718 34.4913 188.718 35.806ZM180.048 31.216C178.982 31.216 178.155 31.6127 177.566 32.406C176.976 33.1993 176.682 34.3327 176.682 35.806C176.682 37.3247 176.965 38.4807 177.532 39.274C178.121 40.0447 178.96 40.43 180.048 40.43C181.136 40.43 181.963 40.0333 182.53 39.24C183.119 38.4467 183.414 37.302 183.414 35.806C183.414 34.3553 183.119 33.2333 182.53 32.44C181.94 31.624 181.113 31.216 180.048 31.216ZM216.566 43.966C216.317 44.034 215.988 44.0907 215.58 44.136C215.172 44.204 214.719 44.238 214.22 44.238C213.2 44.238 212.463 44.0793 212.01 43.762C211.579 43.422 211.364 42.776 211.364 41.824V33.392C211.364 32.644 211.16 32.1 210.752 31.76C210.344 31.3973 209.789 31.216 209.086 31.216C208.633 31.216 208.202 31.2953 207.794 31.454C207.409 31.6127 207.057 31.8167 206.74 32.066C206.763 32.1793 206.774 32.2927 206.774 32.406C206.797 32.5193 206.808 32.6327 206.808 32.746V43.966C206.559 44.034 206.23 44.0907 205.822 44.136C205.414 44.204 204.961 44.238 204.462 44.238C203.442 44.238 202.705 44.0793 202.252 43.762C201.821 43.422 201.606 42.776 201.606 41.824V33.392C201.606 32.644 201.379 32.1 200.926 31.76C200.473 31.3973 199.917 31.216 199.26 31.216C198.784 31.216 198.353 31.2953 197.968 31.454C197.583 31.59 197.265 31.726 197.016 31.862V43.966C196.789 44.034 196.472 44.0907 196.064 44.136C195.656 44.204 195.203 44.238 194.704 44.238C193.684 44.238 192.947 44.0793 192.494 43.762C192.041 43.422 191.814 42.776 191.814 41.824V31.318C191.814 30.7287 191.939 30.2527 192.188 29.89C192.437 29.5273 192.789 29.1873 193.242 28.87C193.99 28.3487 194.908 27.9293 195.996 27.612C197.107 27.2947 198.263 27.136 199.464 27.136C200.416 27.136 201.311 27.272 202.15 27.544C203.011 27.7933 203.793 28.19 204.496 28.734C205.176 28.2807 205.947 27.9067 206.808 27.612C207.669 27.2947 208.689 27.136 209.868 27.136C210.752 27.136 211.591 27.2493 212.384 27.476C213.2 27.68 213.914 28.0313 214.526 28.53C215.138 29.006 215.625 29.6407 215.988 30.434C216.373 31.2047 216.566 32.1453 216.566 33.256V43.966ZM245.154 43.966C244.905 44.034 244.576 44.0907 244.168 44.136C243.76 44.204 243.307 44.238 242.808 44.238C241.788 44.238 241.051 44.0793 240.598 43.762C240.167 43.422 239.952 42.776 239.952 41.824V33.392C239.952 32.644 239.748 32.1 239.34 31.76C238.932 31.3973 238.377 31.216 237.674 31.216C237.221 31.216 236.79 31.2953 236.382 31.454C235.997 31.6127 235.645 31.8167 235.328 32.066C235.351 32.1793 235.362 32.2927 235.362 32.406C235.385 32.5193 235.396 32.6327 235.396 32.746V43.966C235.147 44.034 234.818 44.0907 234.41 44.136C234.002 44.204 233.549 44.238 233.05 44.238C232.03 44.238 231.293 44.0793 230.84 43.762C230.409 43.422 230.194 42.776 230.194 41.824V33.392C230.194 32.644 229.967 32.1 229.514 31.76C229.061 31.3973 228.505 31.216 227.848 31.216C227.372 31.216 226.941 31.2953 226.556 31.454C226.171 31.59 225.853 31.726 225.604 31.862V43.966C225.377 44.034 225.06 44.0907 224.652 44.136C224.244 44.204 223.791 44.238 223.292 44.238C222.272 44.238 221.535 44.0793 221.082 43.762C220.629 43.422 220.402 42.776 220.402 41.824V31.318C220.402 30.7287 220.527 30.2527 220.776 29.89C221.025 29.5273 221.377 29.1873 221.83 28.87C222.578 28.3487 223.496 27.9293 224.584 27.612C225.695 27.2947 226.851 27.136 228.052 27.136C229.004 27.136 229.899 27.272 230.738 27.544C231.599 27.7933 232.381 28.19 233.084 28.734C233.764 28.2807 234.535 27.9067 235.396 27.612C236.257 27.2947 237.277 27.136 238.456 27.136C239.34 27.136 240.179 27.2493 240.972 27.476C241.788 27.68 242.502 28.0313 243.114 28.53C243.726 29.006 244.213 29.6407 244.576 30.434C244.961 31.2047 245.154 32.1453 245.154 33.256V43.966ZM264.766 40.6C264.766 41.6653 264.301 42.4813 263.372 43.048C262.647 43.5013 261.751 43.8527 260.686 44.102C259.621 44.374 258.442 44.51 257.15 44.51C255.926 44.51 254.815 44.374 253.818 44.102C252.821 43.8527 251.959 43.4447 251.234 42.878C250.531 42.3113 249.976 41.5973 249.568 40.736C249.183 39.8747 248.99 38.832 248.99 37.608V27.714C249.239 27.646 249.568 27.578 249.976 27.51C250.384 27.442 250.837 27.408 251.336 27.408C252.356 27.408 253.081 27.578 253.512 27.918C253.965 28.258 254.192 28.904 254.192 29.856V37.574C254.192 38.594 254.453 39.3307 254.974 39.784C255.495 40.2147 256.232 40.43 257.184 40.43C257.773 40.43 258.261 40.3847 258.646 40.294C259.054 40.1807 259.36 40.0673 259.564 39.954V27.714C259.791 27.646 260.108 27.578 260.516 27.51C260.924 27.442 261.377 27.408 261.876 27.408C262.896 27.408 263.633 27.578 264.086 27.918C264.539 28.258 264.766 28.904 264.766 29.856V40.6ZM279.154 33.562C279.154 32.7687 278.916 32.1793 278.44 31.794C277.964 31.4087 277.329 31.216 276.536 31.216C275.992 31.216 275.493 31.284 275.04 31.42C274.586 31.556 274.167 31.726 273.782 31.93V43.966C273.555 44.034 273.238 44.0907 272.83 44.136C272.422 44.204 271.968 44.238 271.47 44.238C270.45 44.238 269.713 44.0793 269.26 43.762C268.806 43.422 268.58 42.776 268.58 41.824V31.318C268.58 30.7287 268.704 30.2527 268.954 29.89C269.203 29.5273 269.554 29.1873 270.008 28.87C270.733 28.3487 271.662 27.9293 272.796 27.612C273.952 27.2947 275.221 27.136 276.604 27.136C279.074 27.136 280.978 27.68 282.316 28.768C283.676 29.856 284.356 31.4087 284.356 33.426V43.966C284.106 44.034 283.778 44.0907 283.37 44.136C282.962 44.204 282.508 44.238 282.01 44.238C280.99 44.238 280.253 44.0793 279.8 43.762C279.369 43.422 279.154 42.776 279.154 41.824V33.562ZM293.541 43.966C293.314 44.034 292.997 44.0907 292.589 44.136C292.181 44.204 291.727 44.238 291.229 44.238C290.209 44.238 289.472 44.0793 289.019 43.762C288.588 43.422 288.373 42.776 288.373 41.824V27.85C288.599 27.782 288.917 27.714 289.325 27.646C289.733 27.578 290.186 27.544 290.685 27.544C291.705 27.544 292.43 27.714 292.861 28.054C293.314 28.394 293.541 29.04 293.541 29.992V43.966ZM288.067 22.954C288.067 22.1833 288.327 21.526 288.849 20.982C289.393 20.438 290.095 20.166 290.957 20.166C291.818 20.166 292.509 20.438 293.031 20.982C293.575 21.526 293.847 22.1833 293.847 22.954C293.847 23.7473 293.575 24.416 293.031 24.96C292.509 25.504 291.818 25.776 290.957 25.776C290.095 25.776 289.393 25.504 288.849 24.96C288.327 24.416 288.067 23.7473 288.067 22.954ZM302.735 38.594C302.735 39.2287 302.939 39.6933 303.347 39.988C303.755 40.26 304.322 40.396 305.047 40.396C305.387 40.396 305.75 40.362 306.135 40.294C306.52 40.2033 306.849 40.1013 307.121 39.988C307.325 40.2147 307.495 40.4753 307.631 40.77C307.767 41.0647 307.835 41.4047 307.835 41.79C307.835 42.5833 307.518 43.2407 306.883 43.762C306.271 44.2607 305.194 44.51 303.653 44.51C301.749 44.51 300.264 44.0793 299.199 43.218C298.134 42.334 297.601 40.906 297.601 38.934V23.668C297.85 23.6 298.179 23.532 298.587 23.464C298.995 23.3733 299.437 23.328 299.913 23.328C300.91 23.328 301.624 23.5093 302.055 23.872C302.508 24.212 302.735 24.8467 302.735 25.776V27.986H307.427C307.54 28.2127 307.654 28.5073 307.767 28.87C307.88 29.21 307.937 29.5727 307.937 29.958C307.937 30.6833 307.767 31.2047 307.427 31.522C307.11 31.8393 306.69 31.998 306.169 31.998H302.735V38.594ZM313.601 39.92C313.079 38.7867 312.479 37.3133 311.799 35.5C311.141 33.664 310.45 31.2953 309.725 28.394C309.997 28.0993 310.371 27.85 310.847 27.646C311.345 27.4193 311.878 27.306 312.445 27.306C313.17 27.306 313.759 27.4647 314.213 27.782C314.666 28.0767 315.017 28.632 315.267 29.448C315.765 31.1027 316.264 32.7347 316.763 34.344C317.284 35.9533 317.805 37.574 318.327 39.206H318.463C318.735 38.4353 319.018 37.5967 319.313 36.69C319.607 35.7607 319.891 34.8087 320.163 33.834C320.435 32.8367 320.684 31.8393 320.911 30.842C321.16 29.822 321.375 28.836 321.557 27.884C322.259 27.4987 322.996 27.306 323.767 27.306C324.492 27.306 325.115 27.4647 325.637 27.782C326.158 28.0993 326.419 28.6207 326.419 29.346C326.419 30.162 326.271 31.2047 325.977 32.474C325.705 33.7207 325.331 35.0353 324.855 36.418C324.401 37.778 323.88 39.138 323.291 40.498C322.724 41.8353 322.135 43.014 321.523 44.034C320.253 46.1873 319.109 47.7853 318.089 48.828C317.069 49.8933 316.037 50.426 314.995 50.426C314.156 50.426 313.465 50.1653 312.921 49.644C312.377 49.1453 312.048 48.4993 311.935 47.706C312.66 47.0713 313.408 46.3233 314.179 45.462C314.972 44.6233 315.641 43.7733 316.185 42.912C315.799 42.7987 315.391 42.5493 314.961 42.164C314.553 41.756 314.099 41.008 313.601 39.92Z" fill="#250074"/>
</svg>
