<svg width="68" height="68" viewBox="0 0 68 68" fill="none" xmlns="http://www.w3.org/2000/svg">
<path d="M29.7962 0.24913C29.3838 0.361603 28.1091 1.2614 26.9844 2.19868C25.8596 3.17346 20.3109 7.55996 14.6872 11.9464C3.47726 20.7194 2.20255 21.8442 0.890354 24.4311C-0.721778 27.6179 -0.571812 28.5551 4.97692 45.1638C7.75128 53.412 10.2632 60.6853 10.6006 61.3226C11.5379 63.1222 14.3123 65.4467 16.6368 66.309C19.6736 67.4338 23.5352 67.3963 26.1221 66.159C27.9217 65.3342 31.8583 62.11 31.8583 61.4726C31.8583 61.0977 28.5965 57.7235 28.2216 57.7235C28.0341 57.7235 27.2843 58.3233 26.572 59.0732C24.8099 60.9102 23.6102 61.4726 21.3607 61.4726C18.7363 61.4726 17.0117 60.5728 15.6245 58.4733C14.9121 57.3486 5.61427 29.9798 5.61427 29.005C5.61427 28.5926 5.9517 27.6179 6.32661 26.7931C6.85149 25.5558 9.06348 23.6438 18.3614 16.2955C24.6224 11.3466 30.3211 6.9226 31.0709 6.4727C31.9707 5.91033 33.0205 5.6104 34.1827 5.6104C35.8324 5.6104 36.2073 5.83535 41.2311 9.77195C61.1391 25.2934 62.2263 26.2682 62.2263 28.9676C62.2263 29.4549 60.5392 34.8912 58.4397 41.0773C56.3777 47.2259 54.2406 53.5619 53.7158 55.0991C53.1909 56.6362 52.4411 58.3608 52.0287 58.9607C50.4165 61.2477 46.3674 62.1475 43.6306 60.8728C42.3184 60.2354 20.1235 37.8905 19.2612 36.3159C18.5488 35.0037 18.6238 32.2293 19.4486 30.7297C21.3232 27.168 26.272 26.6056 29.1589 29.6799L29.9837 30.5797L29.0089 31.517C25.5222 34.7037 25.9721 40.5524 29.9087 43.2893C31.2959 44.2266 31.8958 44.414 33.8453 44.414C36.5447 44.414 38.1193 43.6642 39.8439 41.4897C41.3436 39.6901 41.681 36.3534 40.6688 34.0664C40.2938 33.2791 39.8814 32.6042 39.769 32.6042C39.2066 32.6042 35.6824 36.5033 35.8699 36.9907C36.1698 37.7405 34.8951 38.9778 33.8828 38.9778C33.0955 38.9778 31.8583 37.7405 31.8583 36.9532C31.8583 36.4283 39.4315 28.8551 40.5563 28.2552C41.8685 27.5804 44.7178 27.5804 46.105 28.2927C48.542 29.5674 49.8541 32.6417 49.0293 35.3036C48.6544 36.5408 47.6422 37.8155 44.7928 40.7024C42.7308 42.7644 39.8814 45.6512 38.4942 47.1134L35.9448 49.7753L37.8194 51.7623L39.694 53.7494L46.105 47.1884C53.9782 39.2027 54.9155 37.6281 54.6531 33.0541C54.3906 28.4802 52.2911 25.2559 48.4295 23.3438C46.6299 22.444 45.8051 22.2941 43.2932 22.2941C39.9189 22.2941 38.0069 23.0064 35.345 25.2934L33.8453 26.5681L32.7581 25.4434C32.1582 24.806 30.846 23.8312 29.7962 23.3064C28.1841 22.444 27.4718 22.2941 24.7349 22.2941C20.9858 22.2941 19.0362 23.0439 16.6742 25.3684C14.2748 27.6928 13.3375 29.9798 13.3375 33.5415C13.3375 38.5279 13.5625 38.8278 27.4718 52.8871C41.4186 66.9839 41.2686 66.9089 46.6674 66.9089C51.0914 66.9089 52.7785 66.3465 55.0655 64.172L56.94 62.4099L62.0389 47.7882C66.0879 36.2784 67.2502 32.4543 67.5876 29.8673L68 26.5306L66.7253 24.0937C65.938 22.669 64.7008 21.0944 63.726 20.2695C59.452 16.7079 39.2816 1.11143 38.2693 0.586548C37.182 -0.0133133 31.6333 -0.200768 29.7962 0.24913Z" fill="#250074"/>
</svg>
