<svg width="245" height="53" viewBox="0 0 245 53" fill="none" xmlns="http://www.w3.org/2000/svg">
<path d="M39.2332 23.6221C38.57 24.2957 38.0621 25.1088 37.7457 26.003C37.4293 26.8975 37.3122 27.8513 37.4027 28.7967L37.3712 28.7649C37.4643 29.8777 37.3156 30.9974 36.9356 32.0463C36.5557 33.095 35.9537 34.0474 35.1716 34.8371C34.3894 35.6266 33.446 36.2345 32.407 36.6179C31.3682 37.0014 30.2589 37.1516 29.1567 37.0576L29.1882 37.0894C27.8698 36.9656 26.5455 37.2551 25.396 37.9188C24.2466 38.5826 23.3278 39.588 22.7652 40.7982C22.2026 42.0083 22.0232 43.3641 22.2517 44.6809C22.4805 45.9976 23.1057 47.2112 24.0425 48.156C24.9793 49.1008 26.1819 49.731 27.4863 49.9604C28.791 50.1901 30.1337 50.0078 31.332 49.4388C32.5302 48.8695 33.5252 47.9413 34.1817 46.7803C34.8381 45.6192 35.1239 44.2822 35 42.9512L35.0332 42.983C34.9401 41.8704 35.0887 40.7505 35.4686 39.7016C35.8485 38.6529 36.4507 37.7005 37.2328 36.9108C38.015 36.1213 38.9585 35.5134 39.9973 35.13C41.0362 34.7464 42.1454 34.5963 43.2477 34.6903L43.2145 34.6585C44.2914 34.7562 45.3755 34.5779 46.3662 34.1401C47.3567 33.7023 48.2219 33.0192 48.8813 32.154C49.5407 31.2889 49.9733 30.2695 50.1385 29.1908C50.3039 28.1119 50.1968 27.0084 49.8272 25.9824C49.4576 24.9565 48.8374 24.0413 48.0242 23.3218C47.2109 22.6022 46.2309 22.1015 45.175 21.8662C44.119 21.6309 43.0213 21.6683 41.9835 21.9752C40.9458 22.2823 40.0016 22.8487 39.2385 23.6221H39.2332Z" fill="#394149"/>
<path d="M26.3235 32.9236L26.2902 32.8918C27.227 32.987 28.173 32.8709 29.0601 32.5519C29.947 32.2328 30.7527 31.7189 31.4188 31.047C32.0846 30.3752 32.5946 29.5622 32.9112 28.667C33.2279 27.7718 33.3436 26.8169 33.25 25.8711L33.2832 25.9029C33.1901 24.79 33.3389 23.6703 33.7186 22.6215C34.0985 21.5728 34.7007 20.6204 35.4828 19.8307C36.265 19.0411 37.2085 18.4332 38.2473 18.0498C39.2862 17.6662 40.3954 17.5162 41.4977 17.6101L41.4645 17.5783C42.7831 17.7034 44.1077 17.4147 45.2578 16.7517C46.408 16.0887 47.3275 15.0837 47.891 13.8738C48.4545 12.6639 48.6346 11.3079 48.4067 9.99085C48.1789 8.67378 47.5541 7.45976 46.6175 6.51435C45.6811 5.56895 44.4785 4.93818 43.1739 4.70813C41.8692 4.47805 40.5261 4.65986 39.3275 5.22876C38.129 5.79765 37.1336 6.72594 36.4768 7.88701C35.82 9.04807 35.5341 10.3854 35.658 11.7165L35.6265 11.683C35.7197 12.7958 35.5713 13.9157 35.1916 14.9646C34.8118 16.0135 34.2097 16.9661 33.4276 17.7559C32.6453 18.5454 31.7017 19.1533 30.6628 19.5367C29.6236 19.92 28.5143 20.0699 27.412 19.9757L27.4435 20.0093C26.5067 19.914 25.5605 20.0301 24.6736 20.3492C23.7867 20.6681 22.981 21.1821 22.3149 21.854C21.6489 22.5259 21.1391 23.3389 20.8223 24.2341C20.5058 25.1292 20.3901 26.0841 20.4837 27.03L20.4522 26.9982C20.545 28.1108 20.396 29.2306 20.0161 30.2792C19.636 31.3278 19.034 32.2802 18.2519 33.0697C17.4698 33.8592 16.5265 34.467 15.4877 34.8507C14.449 35.2342 13.3399 35.3846 12.2377 35.2909L12.2692 35.3227C10.9506 35.1976 9.62593 35.4863 8.47581 36.1493C7.32571 36.8124 6.40617 37.8173 5.84265 39.0272C5.27912 40.2372 5.09901 41.5932 5.32691 42.9102C5.55482 44.2273 6.17963 45.4413 7.11611 46.3867C8.05261 47.3322 9.25517 47.9629 10.5598 48.1929C11.8645 48.4229 13.2076 48.2411 14.4062 47.6723C15.6047 47.1034 16.6002 46.1752 17.2569 45.0141C17.9137 43.8529 18.1996 42.5157 18.0757 41.1845L18.109 41.2163C18.0159 40.1035 18.1646 38.9838 18.5445 37.9349C18.9243 36.8862 19.5265 35.9338 20.3085 35.1441C21.0908 34.3546 22.0342 33.7467 23.073 33.3633C24.112 32.9798 25.2211 32.8296 26.3235 32.9236Z" fill="#394149"/>
<path d="M14.595 29.3779C15.2583 28.7044 15.7661 27.8914 16.0822 26.997C16.3983 26.1025 16.515 25.1485 16.4238 24.2033L16.457 24.2351C16.3639 23.1221 16.5126 22.0019 16.8927 20.9528C17.2728 19.9038 17.8752 18.9512 18.6578 18.1615C19.4404 17.3718 20.3842 16.7641 21.4235 16.3809C22.4628 15.9976 23.5725 15.8479 24.675 15.9424L24.6418 15.9106C25.9599 16.0353 27.2841 15.7464 28.4337 15.0835C29.5832 14.4206 30.5022 13.4159 31.0655 12.2063C31.6286 10.9967 31.8085 9.64127 31.5807 8.32469C31.3528 7.00812 30.7281 5.79456 29.792 4.8495C28.8559 3.90444 27.6537 3.27388 26.3496 3.04383C25.0455 2.81375 23.7027 2.9954 22.5047 3.56395C21.3064 4.1325 20.3112 5.0603 19.6546 6.22082C18.9978 7.38135 18.7117 8.71811 18.8353 10.0488L18.8038 10.017C18.8969 11.1297 18.7481 12.2496 18.3682 13.2983C17.9883 14.3471 17.3863 15.2995 16.6041 16.0892C15.8219 16.8788 14.8785 17.4866 13.8396 17.87C12.8007 18.2536 11.6915 18.4037 10.5893 18.3097L10.6208 18.3415C9.54375 18.244 8.45978 18.4226 7.46932 18.8606C6.47885 19.2985 5.61392 19.9819 4.95467 20.8472C4.29543 21.7123 3.86322 22.7317 3.69805 23.8104C3.5329 24.8893 3.64016 25.9928 4.00988 27.0185C4.37961 28.0444 4.99986 28.9594 5.81314 29.6788C6.62641 30.3983 7.60641 30.8988 8.66233 31.1341C9.71823 31.3693 10.8159 31.3317 11.8536 31.0248C12.8913 30.7177 13.8354 30.1513 14.5985 29.3779H14.595Z" fill="#394149"/>
<path d="M68.8047 11.7572H74.0022V37.2908H68.8047V11.7572Z" fill="#394149"/>
<path d="M76.9457 28.5476C76.9386 26.7127 77.4709 24.9167 78.4754 23.3875C79.4799 21.8583 80.9114 20.6643 82.5886 19.9571C84.2658 19.2498 86.1131 19.0609 87.8967 19.4144C89.6803 19.7679 91.3199 20.6477 92.6077 21.9427C93.8955 23.2375 94.7737 24.8892 95.131 26.6883C95.4884 28.4875 95.3087 30.3533 94.6148 32.0493C93.9209 33.7451 92.744 35.1952 91.2333 36.2153C89.7223 37.2355 87.9457 37.7802 86.128 37.7802C84.9215 37.7941 83.7244 37.565 82.6065 37.1064C81.4886 36.6477 80.4725 35.9688 79.6176 35.1093C78.7626 34.2497 78.086 33.2266 77.6274 32.1C77.1685 30.9734 76.9368 29.7657 76.9457 28.5476ZM90.1127 28.5476C90.091 27.7566 89.8389 26.9897 89.3879 26.3426C88.9367 25.6956 88.3067 25.1971 87.5766 24.9096C86.8464 24.622 86.0485 24.5581 85.2826 24.7259C84.5166 24.8937 83.8166 25.2856 83.2701 25.8529C82.7237 26.42 82.3548 27.1372 82.2101 27.9149C82.0652 28.6924 82.1504 29.4959 82.4554 30.2248C82.7605 30.9538 83.2715 31.5756 83.9246 32.0129C84.5778 32.4501 85.3443 32.6833 86.128 32.6833C86.6647 32.6978 87.1986 32.5998 87.6962 32.3955C88.1935 32.1913 88.6436 31.8853 89.0179 31.4968C89.3923 31.1082 89.6829 30.6455 89.8712 30.1379C90.0597 29.6304 90.142 29.0889 90.1127 28.5476Z" fill="#394149"/>
<path d="M116.025 19.8026V36.4092C116.025 42.2852 111.486 44.7691 106.878 44.7691C105.256 44.8917 103.631 44.5608 102.183 43.813C100.734 43.065 99.5178 41.9288 98.6668 40.5291L103.101 37.9409C103.459 38.6706 104.029 39.2725 104.735 39.6663C105.441 40.0599 106.249 40.2266 107.051 40.144C107.564 40.2157 108.086 40.1701 108.579 40.0106C109.072 39.851 109.523 39.5816 109.899 39.2225C110.275 38.8631 110.566 38.4232 110.751 37.9349C110.935 37.4468 111.009 36.923 110.966 36.4022V34.8033C110.357 35.555 109.583 36.1524 108.704 36.5472C107.825 36.9421 106.867 37.1235 105.907 37.077C103.621 37.0042 101.453 36.0365 99.8611 34.3783C98.2697 32.7202 97.3798 30.502 97.3798 28.1933C97.3798 25.8847 98.2697 23.6664 99.8611 22.0084C101.453 20.3502 103.621 19.3824 105.907 19.3097C106.867 19.2632 107.825 19.4446 108.704 19.8395C109.583 20.2343 110.357 20.8316 110.966 21.5834V19.799L116.025 19.8026ZM110.968 28.196C111.003 27.3505 110.786 26.5136 110.346 25.7933C109.906 25.0729 109.262 24.5021 108.498 24.1542C107.734 23.8062 106.884 23.6972 106.058 23.841C105.231 23.9848 104.467 24.3749 103.862 24.9612C103.257 25.5474 102.84 26.3028 102.664 27.1303C102.489 27.9578 102.562 28.8196 102.876 29.6046C103.189 30.3895 103.728 31.0619 104.423 31.535C105.118 32.0081 105.938 32.2604 106.776 32.2593C107.322 32.2978 107.87 32.2205 108.385 32.0321C108.9 31.8438 109.37 31.5486 109.764 31.1659C110.159 30.7831 110.47 30.3211 110.678 29.8095C110.885 29.298 110.984 28.7484 110.968 28.196Z" fill="#394149"/>
<path d="M118.969 28.5476C118.961 26.7127 119.494 24.9167 120.498 23.3875C121.503 21.8583 122.934 20.6643 124.611 19.9571C126.289 19.2498 128.136 19.0609 129.919 19.4144C131.703 19.7679 133.343 20.6477 134.63 21.9427C135.918 23.2375 136.796 24.8892 137.154 26.6883C137.511 28.4875 137.331 30.3533 136.638 32.0493C135.944 33.7451 134.767 35.1952 133.256 36.2153C131.745 37.2355 129.968 37.7802 128.151 37.7802C126.944 37.7941 125.747 37.565 124.629 37.1064C123.511 36.6477 122.495 35.9688 121.64 35.1093C120.785 34.2497 120.109 33.2266 119.65 32.1C119.191 30.9734 118.96 29.7657 118.969 28.5476ZM132.135 28.5476C132.114 27.7566 131.862 26.9897 131.411 26.3426C130.959 25.6956 130.33 25.1971 129.599 24.9096C128.869 24.622 128.071 24.5581 127.305 24.7259C126.539 24.8937 125.839 25.2856 125.293 25.8529C124.746 26.42 124.378 27.1372 124.233 27.9149C124.088 28.6924 124.173 29.4959 124.478 30.2248C124.783 30.9538 125.294 31.5756 125.947 32.0129C126.601 32.4501 127.367 32.6833 128.151 32.6833C128.687 32.6978 129.221 32.5998 129.719 32.3955C130.216 32.1913 130.666 31.8853 131.041 31.4968C131.415 31.1082 131.706 30.6455 131.894 30.1379C132.082 29.6304 132.165 29.0889 132.135 28.5476Z" fill="#394149"/>
<path d="M139.757 15.1156C139.757 14.4929 139.94 13.8843 140.282 13.3666C140.625 12.8489 141.112 12.4453 141.682 12.2071C142.252 11.9688 142.879 11.9064 143.484 12.0279C144.089 12.1494 144.644 12.4492 145.08 12.8895C145.517 13.3298 145.814 13.8907 145.934 14.5014C146.054 15.1121 145.992 15.7451 145.756 16.3204C145.52 16.8956 145.121 17.3873 144.608 17.7333C144.095 18.0792 143.492 18.2638 142.875 18.2638C142.051 18.2555 141.262 17.9213 140.679 17.3326C140.096 16.7439 139.765 15.948 139.757 15.1156ZM140.282 19.8026H145.481V37.2926H140.275L140.282 19.8026Z" fill="#394149"/>
<path d="M167.923 28.5476C167.983 29.7035 167.816 30.8599 167.432 31.9505C167.048 33.0411 166.454 34.0442 165.684 34.9023C164.915 35.7602 163.985 36.4562 162.948 36.9502C161.911 37.444 160.787 37.7261 159.642 37.7802C158.679 37.8332 157.716 37.6692 156.823 37.3002C155.931 36.9309 155.131 36.3659 154.481 35.646V44.2868H149.284V19.8026H154.481V21.4456C155.131 20.7262 155.931 20.1615 156.824 19.7928C157.716 19.424 158.679 19.2602 159.642 19.3132C160.788 19.3671 161.911 19.649 162.948 20.143C163.986 20.637 164.916 21.333 165.685 22.1913C166.455 23.0495 167.049 24.053 167.433 25.1439C167.817 26.2346 167.984 27.3915 167.923 28.5476ZM162.725 28.5476C162.705 27.7291 162.446 26.9348 161.981 26.264C161.516 25.5933 160.865 25.0761 160.11 24.7771C159.355 24.478 158.529 24.4104 157.736 24.5828C156.943 24.7551 156.218 25.1596 155.652 25.7458C155.086 26.3322 154.703 27.0738 154.553 27.8785C154.402 28.6831 154.49 29.5145 154.805 30.269C155.12 31.0235 155.648 31.6673 156.324 32.1201C157 32.5727 157.793 32.8142 158.604 32.8141C159.161 32.8391 159.717 32.745 160.235 32.5379C160.753 32.3311 161.223 32.0157 161.612 31.6129C162.001 31.2099 162.301 30.7287 162.493 30.2005C162.685 29.6722 162.764 29.1088 162.725 28.5476Z" fill="#394149"/>
<path d="M183.962 32.0438C183.962 36.0665 180.499 37.7802 176.757 37.7802C175.245 37.9183 173.727 37.5957 172.399 36.8536C171.071 36.1116 169.994 34.9844 169.307 33.6179L173.81 31.0297C173.992 31.6613 174.383 32.2109 174.918 32.5863C175.453 32.9619 176.101 33.1409 176.75 33.0932C177.996 33.0932 178.621 32.7081 178.621 32.0102C178.621 30.0846 170.096 31.1004 170.096 25.0496C170.096 21.2353 173.285 19.3132 176.888 19.3132C178.243 19.2699 179.583 19.5943 180.771 20.2524C181.96 20.9106 182.952 21.8784 183.643 23.055L179.209 25.4683C179.015 25.0102 178.691 24.6199 178.278 24.3463C177.865 24.0726 177.382 23.9277 176.888 23.9295C175.987 23.9295 175.432 24.2828 175.432 24.9082C175.439 26.9028 183.962 25.5725 183.962 32.0438Z" fill="#394149"/>
<path d="M202.947 19.8026V37.2926H197.75V35.6478C197.15 36.3735 196.388 36.9454 195.527 37.3164C194.666 37.6874 193.732 37.8469 192.797 37.7819C189.297 37.7819 186.322 35.2644 186.322 30.5386V19.8026H191.52V29.7701C191.476 30.1867 191.523 30.6079 191.658 31.0041C191.791 31.4006 192.01 31.7627 192.297 32.0654C192.584 32.368 192.932 32.6038 193.319 32.7566C193.704 32.9095 194.119 32.9755 194.533 32.9501C196.439 32.9501 197.755 31.8318 197.755 29.3479V19.8079L202.947 19.8026Z" fill="#394149"/>
<path d="M232.75 26.553V37.2908H227.552V27.007C227.552 25.258 226.721 24.1397 225.059 24.1397C223.326 24.1397 222.355 25.364 222.355 27.4275V37.2908H217.159V27.007C217.159 25.258 216.328 24.1397 214.664 24.1397C212.931 24.1397 211.962 25.364 211.962 27.4275V37.2908H206.764V19.8008H211.962V21.4085C212.501 20.6953 213.208 20.1296 214.018 19.7633C214.83 19.3969 215.719 19.2417 216.605 19.3114C217.494 19.2674 218.379 19.457 219.175 19.8614C219.97 20.2656 220.647 20.8712 221.142 21.6187C221.718 20.8366 222.481 20.2147 223.36 19.8112C224.238 19.4077 225.204 19.2358 226.167 19.3114C230.144 19.3132 232.75 22.1805 232.75 26.553Z" fill="#394149"/>
<path d="M237.146 19.6948C239.276 19.6948 241.003 17.9515 241.003 15.8011C241.003 13.6506 239.276 11.9073 237.146 11.9073C235.016 11.9073 233.289 13.6506 233.289 15.8011C233.289 17.9515 235.016 19.6948 237.146 19.6948Z" fill="#394149"/>
</svg>
