<svg width="236" height="73" viewBox="0 0 236 73" fill="none" xmlns="http://www.w3.org/2000/svg">
<path d="M36.2362 3.71654C31.9657 3.71654 27.7369 4.55778 23.7914 6.19194C19.8459 7.82628 16.2611 10.2216 13.2413 13.2413C10.2216 16.2611 7.82627 19.8459 6.19192 23.7914C4.55776 27.7369 3.71652 31.9657 3.71652 36.2362C3.71652 40.5067 4.55776 44.7356 6.19192 48.681C7.82627 52.6265 10.2216 56.2113 13.2413 59.2312C16.2611 62.2509 19.8459 64.6462 23.7914 66.2805C27.7369 67.9147 31.9657 68.7559 36.2362 68.7559V52.4961C34.1009 52.4961 31.9865 52.0755 30.0138 51.2583C28.0411 50.4412 26.2486 49.2435 24.7387 47.7337C23.2289 46.2239 22.0312 44.4314 21.2142 42.4586C20.3969 40.4859 19.9764 38.3716 19.9764 36.2362C19.9764 34.1009 20.3969 31.9866 21.2142 30.0138C22.0312 28.0411 23.2289 26.2486 24.7387 24.7387C26.2486 23.2289 28.0411 22.0313 30.0138 21.2142C31.9865 20.3969 34.1009 19.9764 36.2362 19.9764V3.71654Z" fill="#394149"/>
<path d="M36.2364 47.0761C42.2232 47.0761 47.0762 42.223 47.0762 36.2362C47.0762 30.2494 42.2232 25.3964 36.2364 25.3964C30.2496 25.3964 25.3966 30.2494 25.3966 36.2362C25.3966 42.223 30.2496 47.0761 36.2364 47.0761Z" fill="#394149"/>
<path d="M3.71652 36.2362C3.71652 40.5067 4.55776 44.7356 6.19192 48.681C7.82627 52.6265 10.2216 56.2113 13.2413 59.2312C16.2611 62.2509 19.8459 64.6462 23.7914 66.2805C27.7369 67.9147 31.9657 68.7559 36.2362 68.7559C40.5067 68.7559 44.7356 67.9147 48.681 66.2805C52.6265 64.6462 56.2113 62.2509 59.2312 59.2312C62.2508 56.2113 64.6461 52.6265 66.2805 48.681C67.9147 44.7356 68.7559 40.5067 68.7559 36.2362H52.496C52.496 38.3716 52.0755 40.4859 51.2583 42.4586C50.4412 44.4314 49.2435 46.2239 47.7337 47.7337C46.2238 49.2435 44.4314 50.4412 42.4586 51.2583C40.4859 52.0755 38.3715 52.4961 36.2362 52.4961C34.1009 52.4961 31.9865 52.0755 30.0138 51.2583C28.0411 50.4412 26.2486 49.2435 24.7387 47.7337C23.2289 46.2239 22.0312 44.4314 21.2142 42.4586C20.3969 40.4859 19.9764 38.3716 19.9764 36.2362H3.71652Z" fill="#2F2E41"/>
<path d="M47.0762 36.2362C47.0762 33.3613 45.9342 30.6042 43.9014 28.5712C41.8685 26.5383 39.1113 25.3962 36.2364 25.3962C33.3615 25.3962 30.6044 26.5383 28.5714 28.5712C26.5385 30.6042 25.3964 33.3613 25.3964 36.2362H36.2364H47.0762Z" fill="#2F2E41"/>
<path d="M85.7397 24.0181H81.7008V46.4567H85.7397V24.0181Z" fill="#394149"/>
<path d="M88.3772 38.507C88.3772 43.7 91.9674 46.9055 96.7115 46.9055C101.456 46.9055 105.046 43.7 105.046 38.507C105.046 33.3141 101.456 30.1086 96.7115 30.1086C91.9674 30.1086 88.3772 33.3141 88.3772 38.507ZM92.4161 38.507C92.4161 35.4297 94.2112 33.6346 96.7115 33.6346C99.2118 33.6346 101.007 35.4297 101.007 38.507C101.007 41.5843 99.2118 43.3794 96.7115 43.3794C94.2112 43.3794 92.4161 41.5843 92.4161 38.507Z" fill="#394149"/>
<path d="M119.479 30.5574V32.705H119.159C118.197 31.3267 116.658 30.1086 113.902 30.1086C110.119 30.1086 106.721 33.3141 106.721 38.2506C106.721 43.1871 110.119 46.3926 113.902 46.3926C116.658 46.3926 118.197 45.1423 119.095 43.8923H119.415V45.4309C119.415 48.5082 117.62 49.9186 114.991 49.9186C112.363 49.9186 111.017 48.5082 110.472 46.681L106.849 48.2518C107.683 50.6558 110.119 53.3165 115.056 53.3165C120.12 53.3165 123.454 50.6558 123.454 45.527V30.5574H119.479ZM115.12 42.9306C112.619 42.9306 110.76 41.1355 110.76 38.2506C110.76 35.3656 112.619 33.5705 115.12 33.5705C117.62 33.5705 119.479 35.3656 119.479 38.2506C119.479 41.1355 117.62 42.9306 115.12 42.9306Z" fill="#394149"/>
<path d="M126.067 38.507C126.067 43.7 129.657 46.9055 134.401 46.9055C139.145 46.9055 142.735 43.7 142.735 38.507C142.735 33.3141 139.145 30.1086 134.401 30.1086C129.657 30.1086 126.067 33.3141 126.067 38.507ZM130.106 38.507C130.106 35.4297 131.901 33.6346 134.401 33.6346C136.902 33.6346 138.697 35.4297 138.697 38.507C138.697 41.5843 136.902 43.3794 134.401 43.3794C131.901 43.3794 130.106 41.5843 130.106 38.507Z" fill="#394149"/>
<path d="M145.906 25.9414C145.906 27.5763 147.156 28.6982 148.76 28.6982C150.362 28.6982 151.612 27.5763 151.612 25.9414C151.612 24.3067 150.362 23.1847 148.76 23.1847C147.156 23.1847 145.906 24.3067 145.906 25.9414ZM150.778 30.5574H146.74V46.4567H150.778V30.5574Z" fill="#2F2E41"/>
<path d="M154.377 52.8677H158.417V44.4052H158.737C159.634 45.6874 161.173 46.9055 163.931 46.9055C167.712 46.9055 171.111 43.7 171.111 38.507C171.111 33.3141 167.712 30.1086 163.931 30.1086C161.173 30.1086 159.634 31.3267 158.674 32.7051H158.352V30.5574H154.377V52.8677ZM162.712 43.4435C160.212 43.4435 158.352 41.6484 158.352 38.507C158.352 35.3656 160.212 33.5705 162.712 33.5705C165.213 33.5705 167.071 35.3656 167.071 38.507C167.071 41.6484 165.213 43.4435 162.712 43.4435Z" fill="#2F2E41"/>
<path d="M173.467 35.0131C173.467 38.1545 176.095 39.3085 179.429 39.9496L180.263 40.1098C182.25 40.4944 183.147 40.9754 183.147 42.0011C183.147 43.0269 182.25 43.8282 180.391 43.8282C178.531 43.8282 177.026 43.0589 176.608 40.7509L172.89 41.7125C173.436 45.0463 176.223 46.9055 180.391 46.9055C184.429 46.9055 187.059 45.0143 187.059 41.6806C187.059 38.3467 184.366 37.4493 180.776 36.7441L179.942 36.5837C178.275 36.2632 177.377 35.8144 177.377 34.7567C177.377 33.795 178.212 33.1859 179.75 33.1859C181.289 33.1859 182.378 33.827 182.762 35.558L186.418 34.4361C185.648 31.8717 183.309 30.1086 179.75 30.1086C175.967 30.1086 173.467 31.8717 173.467 35.0131Z" fill="#2F2E41"/>
<path d="M205.201 46.4567V30.5574H201.163V38.7635C201.163 41.7125 199.721 43.4435 197.251 43.4435C195.072 43.4435 193.854 42.2576 193.854 39.8533V30.5574H189.815V40.0457C189.815 43.9885 192.284 46.7131 196.003 46.7131C198.918 46.7131 200.265 45.4309 200.907 44.0846H201.226V46.4567H205.201Z" fill="#2F2E41"/>
<path d="M208.784 30.5574V46.4567H212.824V36.9684C212.824 34.7886 213.849 33.5705 215.708 33.5705C217.311 33.5705 218.272 34.4681 218.272 36.1991V46.4567H222.312V36.9684C222.312 34.7886 223.338 33.5705 225.196 33.5705C226.8 33.5705 227.76 34.4681 227.76 36.1991V46.4567H231.8V36.0067C231.8 32.1601 229.427 30.3009 226.478 30.3009C223.882 30.3009 222.697 31.4549 221.927 32.8012H221.606C220.868 31.2947 219.554 30.3009 217.246 30.3009C214.938 30.3009 213.688 31.3267 213.08 32.5448H212.759V30.5574H208.784Z" fill="#2F2E41"/>
</svg>
