<svg width="217" height="56" viewBox="0 0 217 56" fill="none" xmlns="http://www.w3.org/2000/svg">
<path d="M64.5225 17.6225H69.7725V38.85H64.5225V17.6225ZM71.855 30.835C71.855 25.585 75.075 22.4525 80.045 22.4525C85.015 22.4525 88.235 25.585 88.235 30.835C88.235 36.085 85.085 39.235 80.045 39.235C75.005 39.235 71.855 36.1725 71.855 30.835ZM82.9675 30.835C82.9675 27.9475 81.83 26.25 80.045 26.25C78.26 26.25 77.14 28 77.14 30.835C77.14 33.67 78.2425 35.385 80.045 35.385C81.8475 35.385 82.9675 33.775 82.9675 30.8525V30.835ZM90.2125 39.8825H95.2525C95.4924 40.4154 95.8979 40.8566 96.4087 41.1404C96.9195 41.4241 97.5084 41.5354 98.0875 41.4575C100.082 41.4575 101.132 40.3725 101.132 38.7975V35.8575H101.027C100.609 36.7586 99.9304 37.5135 99.0788 38.0252C98.2273 38.5368 97.2419 38.7814 96.25 38.7275C92.4175 38.7275 89.88 35.805 89.88 30.7825C89.88 25.76 92.295 22.5925 96.32 22.5925C97.343 22.5524 98.3538 22.8259 99.2171 23.3763C100.08 23.9269 100.755 24.728 101.15 25.6725V22.75H106.4V38.675C106.4 42.5075 103.022 44.8875 98.035 44.8875C93.3975 44.8875 90.51 42.805 90.2125 39.9V39.8825ZM101.15 30.8175C101.15 28.2625 99.9775 26.6525 98.1225 26.6525C96.2675 26.6525 95.13 28.245 95.13 30.8175C95.13 33.39 96.25 34.8425 98.1225 34.8425C99.995 34.8425 101.15 33.425 101.15 30.835V30.8175ZM108.377 30.8175C108.377 25.5675 111.597 22.435 116.567 22.435C121.537 22.435 124.775 25.5675 124.775 30.8175C124.775 36.0675 121.625 39.2175 116.567 39.2175C111.51 39.2175 108.377 36.1725 108.377 30.835V30.8175ZM119.49 30.8175C119.49 27.93 118.352 26.2325 116.567 26.2325C114.782 26.2325 113.75 28 113.75 30.8525C113.75 33.705 114.852 35.4025 116.637 35.4025C118.422 35.4025 119.49 33.775 119.49 30.8525V30.8175ZM126.77 18.935C126.756 18.4049 126.9 17.8827 127.183 17.4346C127.467 16.9864 127.877 16.6325 128.362 16.4176C128.847 16.2028 129.384 16.1368 129.906 16.2278C130.429 16.3189 130.912 16.5631 131.296 16.9293C131.679 17.2955 131.945 17.7674 132.06 18.285C132.175 18.8027 132.134 19.3427 131.942 19.8369C131.749 20.331 131.414 20.7569 130.98 21.0606C130.545 21.3642 130.03 21.532 129.5 21.5425C129.149 21.5667 128.796 21.5178 128.464 21.3992C128.133 21.2805 127.829 21.0947 127.573 20.853C127.316 20.6115 127.113 20.3194 126.975 19.9953C126.836 19.6714 126.767 19.3223 126.77 18.97V18.935ZM126.77 22.785H132.02V38.85H126.77V22.785ZM151.077 30.8175C151.077 36.0675 148.75 39.06 144.76 39.06C143.737 39.1256 142.718 38.8756 141.842 38.3436C140.965 37.8114 140.274 37.023 139.86 36.085H139.755V43.995H134.505V22.75H139.755V25.62H139.86C140.254 24.6664 140.933 23.8576 141.804 23.3034C142.674 22.7491 143.694 22.4765 144.725 22.5225C148.75 22.5925 151.147 25.6025 151.147 30.8525L151.077 30.8175ZM145.827 30.8175C145.827 28.2625 144.655 26.635 142.817 26.635C140.98 26.635 139.807 28.28 139.79 30.8175C139.772 33.355 140.98 34.9825 142.817 34.9825C144.655 34.9825 145.827 33.39 145.827 30.8525V30.8175ZM160.09 22.4175C164.447 22.4175 167.09 24.4825 167.212 27.79H162.435C162.435 26.6525 161.49 25.935 160.037 25.935C158.585 25.935 157.937 26.495 157.937 27.3175C157.937 28.14 158.515 28.4025 159.687 28.6475L163.047 29.33C166.25 30.0125 167.615 31.3075 167.615 33.74C167.615 37.065 164.587 39.2 160.125 39.2C155.662 39.2 152.74 37.065 152.512 33.7925H157.57C157.727 34.9825 158.672 35.6825 160.212 35.6825C161.752 35.6825 162.452 35.175 162.452 34.335C162.452 33.495 161.962 33.32 160.702 33.0575L157.675 32.41C154.542 31.7625 152.897 30.1 152.897 27.65C152.932 24.5 155.75 22.4525 160.09 22.4525V22.4175ZM185.132 38.815H180.075V35.8225H179.97C179.692 36.8272 179.079 37.7066 178.232 38.3147C177.385 38.9226 176.356 39.2228 175.315 39.165C174.517 39.2103 173.719 39.084 172.975 38.7944C172.23 38.5047 171.556 38.0588 170.999 37.4864C170.442 36.9142 170.013 36.2287 169.744 35.4767C169.474 34.7247 169.369 33.9236 169.435 33.1275V22.75H174.685V31.92C174.685 33.8275 175.665 34.8425 177.292 34.8425C177.674 34.8432 178.052 34.7625 178.4 34.6055C178.747 34.4486 179.058 34.219 179.31 33.9323C179.56 33.6455 179.749 33.3083 179.86 32.9432C179.97 32.578 180.003 32.1934 179.952 31.815V22.75H185.202L185.132 38.815ZM187.67 22.75H192.745V25.8475H192.85C193.128 24.8561 193.728 23.985 194.554 23.3707C195.38 22.7565 196.388 22.4334 197.417 22.4525C198.466 22.3687 199.505 22.6821 200.333 23.3307C201.159 23.9792 201.712 24.9151 201.88 25.9525H201.985C202.302 24.9041 202.96 23.9913 203.854 23.3576C204.746 22.7239 205.826 22.4054 206.92 22.4525C207.634 22.4285 208.344 22.5551 209.006 22.8239C209.669 23.0925 210.266 23.4976 210.761 24.0125C211.256 24.5275 211.638 25.1409 211.881 25.8127C212.123 26.4845 212.222 27.2001 212.17 27.9125V38.85H206.92V29.3125C206.92 27.5625 206.132 26.7575 204.662 26.7575C204.335 26.7547 204.01 26.8223 203.71 26.9556C203.411 27.089 203.143 27.285 202.926 27.5305C202.709 27.776 202.547 28.0651 202.45 28.3785C202.354 28.6921 202.328 29.0225 202.37 29.3475V38.85H197.382V29.2425C197.382 27.6325 196.595 26.7575 195.16 26.7575C194.829 26.7577 194.5 26.828 194.199 26.964C193.896 27.1002 193.625 27.2988 193.406 27.5468C193.186 27.7947 193.021 28.0866 192.922 28.4032C192.824 28.7196 192.792 29.0533 192.832 29.3825V38.85H187.582L187.67 22.75Z" fill="#394149"/>
<path d="M49.84 18.585C48.9494 16.5486 47.7708 14.6509 46.34 12.95C44.2251 10.3606 41.5858 8.24843 38.5957 6.75254C35.6057 5.25668 32.3326 4.41099 28.9922 4.27115C25.6518 4.13131 22.3197 4.70048 19.215 5.94123C16.1104 7.18196 13.3038 9.06613 10.9798 11.4697C8.65587 13.8733 6.86728 16.7418 5.73179 19.8865C4.59631 23.031 4.13964 26.3805 4.39189 29.7143C4.64415 33.0482 5.59956 36.2908 7.19528 39.2287C8.791 42.1668 10.9908 44.7335 13.65 46.76C15.3563 48.0863 17.2416 49.1645 19.25 49.9625C22.0657 51.1164 25.0794 51.7107 28.1225 51.7125C34.4039 51.6987 40.4236 49.1948 44.8621 44.7498C49.3005 40.3048 51.7954 34.2814 51.8 28C51.8045 24.7599 51.1373 21.554 49.84 18.585ZM28.105 9.08248C30.8378 9.0822 33.5375 9.67947 36.015 10.8325C35.4109 11.0935 34.7756 11.2759 34.125 11.375C31.984 11.6849 30.0008 12.6789 28.4711 14.2085C26.9414 15.7382 25.9474 17.7215 25.6375 19.8625C25.5015 21.0632 24.9553 22.1802 24.0914 23.0251C23.2274 23.87 22.0985 24.3908 20.895 24.5C18.754 24.8099 16.7707 25.8039 15.241 27.3336C13.7114 28.8633 12.7174 30.8465 12.4075 32.9875C12.3026 34.1292 11.8155 35.2021 11.025 36.0325C9.66114 33.1508 9.04846 29.9707 9.24397 26.7885C9.43948 23.6063 10.4368 20.5252 12.1432 17.832C13.8496 15.1389 16.2095 12.9211 19.0034 11.3852C21.7973 9.84929 24.9343 9.04512 28.1225 9.04748L28.105 9.08248ZM13.6325 40.25C13.8425 40.0575 14.0525 39.8825 14.2625 39.6725C15.8194 38.1631 16.8187 36.1706 17.0975 34.02C17.2105 32.8111 17.7502 31.682 18.62 30.835C19.457 29.9638 20.5835 29.4285 21.7875 29.33C23.9284 29.0201 25.9117 28.0261 27.4414 26.4964C28.9711 24.9667 29.9651 22.9834 30.275 20.8425C30.3508 19.5781 30.8933 18.3869 31.7975 17.5C32.6552 16.6457 33.7923 16.1299 35 16.0475C36.9668 15.7769 38.8012 14.9025 40.25 13.545C41.8997 14.9136 43.2973 16.5601 44.38 18.41C44.3135 18.4998 44.2372 18.582 44.1525 18.655C43.3172 19.5338 42.1921 20.0809 40.985 20.195C38.8418 20.4995 36.8555 21.4917 35.3248 23.0223C33.7942 24.553 32.802 26.5393 32.4975 28.6825C32.3741 29.8872 31.8381 31.0123 30.9802 31.867C30.1222 32.7218 28.9952 33.2537 27.79 33.3725C25.6427 33.68 23.6521 34.672 22.1135 36.201C20.5751 37.7302 19.5708 39.7147 19.25 41.86C19.1558 42.7152 18.862 43.5365 18.3925 44.2575C16.597 43.1914 14.9889 41.8376 13.6325 40.25ZM28.105 47.005C26.3293 47.0069 24.5619 46.7595 22.855 46.27C23.439 45.1815 23.8185 43.9952 23.975 42.77C24.0977 41.5679 24.6312 40.4449 25.4856 39.5906C26.3399 38.7362 27.4629 38.2027 28.665 38.08C30.8091 37.7736 32.7964 36.7811 34.3296 35.2511C35.8626 33.7213 36.8592 31.7359 37.17 29.5925C37.2927 28.3904 37.8262 27.2674 38.6806 26.4131C39.5349 25.5587 40.6579 25.0252 41.86 24.9025C43.4735 24.6927 45.0114 24.0919 46.34 23.1525C47.0778 25.9488 47.1651 28.8769 46.5955 31.7123C46.0259 34.5476 44.8142 37.215 43.0537 39.5094C41.2932 41.8036 39.0306 43.6644 36.4392 44.9486C33.848 46.2327 30.997 46.9063 28.105 46.9175V47.005Z" fill="#394149"/>
</svg>
