<svg width="282" height="81" viewBox="0 0 282 81" fill="none" xmlns="http://www.w3.org/2000/svg">
<path fill-rule="evenodd" clip-rule="evenodd" d="M46.8906 6.55772C44.2578 3.92851 39.9902 3.92937 37.3586 6.55967L15.3955 28.5115L15.3768 28.506L15.3074 28.5134C15.336 28.5271 15.3641 28.5407 15.3916 28.5544C11.5388 28.9577 9.90408 30.1144 9.88557 31.5999C9.8921 32.1524 10.119 32.7492 10.5358 33.3686L10.5158 33.3887C14.0184 38.6666 31.37 45.6289 43.6458 40.9117C34.4456 45.5076 12.7786 46.4185 6.41463 37.4951C5.03258 38.9888 4.45434 40.9518 4.6721 42.8383C6.35328 52.0958 25.1489 54.6215 43.9448 41.2084L48.0121 45.2719C42.9509 50.4669 35.4749 80.642 46.5834 76.0349C46.8469 75.8561 47.0705 75.6963 47.3748 75.4663L47.8698 74.9993C47.8413 75.0063 47.8129 75.013 47.7847 75.0197L77.5357 46.959C80.2981 44.3535 80.3606 39.9832 77.6737 37.2998L46.8906 6.55772ZM43.6508 15.7024L44.6676 11.6389L45.6843 15.7024L48.7349 16.7183L45.6843 17.7342L44.6676 21.7978L43.6508 17.7342L40.6002 16.7183L43.6508 15.7024ZM31.0649 28.9677L31.7428 26.2586L32.4206 28.9677L34.4544 29.6449L32.4206 30.3222L31.7428 33.0313L31.0649 30.3222L29.0314 29.6449L31.0649 28.9677ZM54.6747 51.8183L53.9968 54.5273L51.9632 55.2047L53.9968 55.8819L54.6747 58.5908L55.3525 55.8819L57.3863 55.2047L55.3525 54.5273L54.6747 51.8183Z" fill="#2F2E41"/>
<path d="M96.7577 21.6156H90.4443V50.0769H107.922V44.5H96.7577V21.6156Z" fill="#2F2E41"/>
<path d="M108.525 40.4231C108.525 46.5 112.606 50.5384 118.765 50.5384C124.886 50.5384 128.967 46.5 128.967 40.4231C128.967 34.3461 124.886 30.2693 118.765 30.2693C112.606 30.2693 108.525 34.3461 108.525 40.4231ZM114.492 40.3847C114.492 37.5 116.186 35.577 118.765 35.577C121.306 35.577 123 37.5 123 40.3847C123 43.3077 121.306 45.2308 118.765 45.2308C116.186 45.2308 114.492 43.3077 114.492 40.3847Z" fill="#2F2E41"/>
<path d="M129.92 40.1154C129.92 45.923 133.693 49.846 139.044 49.846C141.624 49.846 143.856 48.9229 144.973 47.423V50.0768C144.973 52.7306 143.317 54.5 140.392 54.5C137.774 54.5 135.965 53.2691 135.849 51.0768H129.844C130.382 56.3461 134.463 59.8845 140.045 59.8845C146.628 59.8845 150.786 55.6153 150.786 48.846V30.8462H145.435L145.127 32.8076C144.049 31.2308 141.777 30.1924 139.16 30.1924C133.77 30.1924 129.92 34.2308 129.92 40.1154ZM135.926 39.9615C135.926 37.1924 137.774 35.3461 140.122 35.3461C142.855 35.3461 144.857 37.1538 144.857 39.9615C144.857 42.7692 142.894 44.6923 140.161 44.6923C137.812 44.6923 135.926 42.7692 135.926 39.9615Z" fill="#2F2E41"/>
<path d="M152.514 40.4231C152.514 46.5 156.594 50.5384 162.754 50.5384C168.875 50.5384 172.956 46.5 172.956 40.4231C172.956 34.3461 168.875 30.2693 162.754 30.2693C156.594 30.2693 152.514 34.3461 152.514 40.4231ZM158.481 40.3847C158.481 37.5 160.175 35.577 162.754 35.577C165.295 35.577 166.988 37.5 166.988 40.3847C166.988 43.3077 165.295 45.2308 162.754 45.2308C160.175 45.2308 158.481 43.3077 158.481 40.3847Z" fill="#2F2E41"/>
<path d="M178.067 27.8462C179.914 27.8462 181.416 26.3463 181.416 24.4616C181.416 22.577 179.914 21.1154 178.067 21.1154C176.181 21.1154 174.679 22.577 174.679 24.4616C174.679 26.3463 176.181 27.8462 178.067 27.8462ZM175.064 50.0768H181.032V30.8462H175.064V50.0768Z" fill="#2F2E41"/>
<path d="M184.504 59.3075H190.355V48.1538C191.473 49.6153 194.012 50.6153 196.67 50.6153C202.405 50.6153 205.871 46.2307 205.715 40.1538C205.562 33.9615 201.983 30.2308 196.632 30.2308C193.898 30.2308 191.319 31.4231 190.241 33.1924L189.932 30.8462H184.504V59.3075ZM190.472 40.4614C190.472 37.5769 192.396 35.6539 195.169 35.6539C197.978 35.6539 199.749 37.6153 199.749 40.4614C199.749 43.3077 197.978 45.2691 195.169 45.2691C192.396 45.2691 190.472 43.3461 190.472 40.4614Z" fill="#2F2E41"/>
<path d="M206.348 43.9999C206.502 47.8845 209.582 50.5767 214.433 50.5767C219.091 50.5767 222.325 48.1152 222.325 44.1538C222.325 41.3077 220.63 39.423 217.473 38.6539L214.047 37.8076C212.815 37.5 212.046 37.1924 212.046 36.1924C212.046 35.1924 212.854 34.5384 214.047 34.5384C215.395 34.5384 216.28 35.4231 216.241 36.7308H221.594C221.439 32.7309 218.398 30.2308 214.163 30.2308C209.889 30.2308 206.695 32.7692 206.695 36.6153C206.695 39.1924 208.12 41.3077 211.93 42.3077L215.318 43.1922C216.319 43.4614 216.742 43.9229 216.742 44.5769C216.742 45.5384 215.857 46.1538 214.355 46.1538C212.623 46.1538 211.699 45.3461 211.699 43.9999H206.348Z" fill="#2F2E41"/>
<path d="M231.399 50.5768C233.748 50.5768 236.096 49.5 237.289 47.923L237.675 50.0769H243.257V30.8462H237.328V40.8462C237.328 43.7307 236.48 45.3077 233.748 45.3077C231.63 45.3077 230.244 44.3461 230.244 40.7693V30.8462H224.315V42.923C224.315 47.5 226.857 50.5768 231.399 50.5768Z" fill="#2F2E41"/>
<path d="M252.658 50.0768V39.577C252.658 36.3461 254.39 35.4231 256.084 35.4231C257.97 35.4231 259.202 36.577 259.202 38.9615V50.0768H265.054V39.577C265.054 36.3077 266.747 35.3847 268.441 35.3847C270.327 35.3847 271.598 36.5384 271.598 38.9615V50.0768H277.373V37.5C277.373 33.1154 275.063 30.1924 270.096 30.1924C267.325 30.1924 265.054 31.5386 264.052 33.6154C262.898 31.5386 260.896 30.1924 257.7 30.1924C255.584 30.1924 253.62 31.1538 252.466 32.6923L252.235 30.8462H246.69V50.0768H252.658Z" fill="#2F2E41"/>
<path fill-rule="evenodd" clip-rule="evenodd" d="M79.8268 9.24683C73.4665 9.24683 67.4347 12.0693 63.3628 16.951L48.8768 34.3183L57.2416 21.7825L43.3566 27.7277C41.5932 28.4828 41.1509 30.7781 42.5073 32.1334L46.9756 36.5974L44.6942 39.3326L49.7133 44.3468L52.4508 42.0675L56.9191 46.5317C58.2755 47.8869 60.5731 47.4449 61.3287 45.6833L67.2794 31.8112L54.7322 40.1683L72.1155 25.6955C77.0017 21.6275 79.8268 15.6013 79.8268 9.24683ZM66.0248 23.0364C67.4107 24.421 69.6577 24.421 71.0437 23.0364C72.4296 21.6517 72.4296 19.4067 71.0437 18.0222C69.6577 16.6374 67.4107 16.6374 66.0248 18.0222C64.6388 19.4067 64.6388 21.6517 66.0248 23.0364Z" fill="#AAAAAA"/>
<path opacity="0.6" d="M6.25323 37.2616C9.57636 48.6364 29.7803 48.0434 43.642 40.9134C34.3599 45.5473 12.4026 46.4324 6.25323 37.2616Z" fill="#424242"/>
<path opacity="0.6" d="M46.5834 76.0349C37.2231 79.9169 41.0583 59.1027 45.5252 49.3475C42.2692 58.0184 39.4897 77.1328 47.8698 74.9993L47.3748 75.4663C47.0706 75.6963 46.8469 75.8562 46.5834 76.0349Z" fill="#424242"/>
</svg>
