<svg width="242" height="64" viewBox="0 0 242 64" fill="none" xmlns="http://www.w3.org/2000/svg">
<path d="M55.9533 22.4C56.6133 22.4 56.8333 22.6377 56.8333 23.2777V37.76H64.295C64.9367 37.76 65.175 37.9977 65.175 38.6377V39.9177C65.175 40.5577 64.9367 40.7954 64.295 40.7954H54.4683C53.8267 40.7954 53.57 40.5577 53.57 39.9177V23.2777C53.57 22.6377 53.8267 22.4 54.4683 22.4H55.9533Z" fill="#394149"/>
<path d="M71.6833 28.7817C71.6833 24.5577 74.36 22.016 79.0167 22.016C83.6733 22.016 86.35 24.5577 86.35 28.7817V34.4137C86.35 38.6377 83.655 41.1794 79.0167 41.1794C74.3783 41.1794 71.6833 38.6377 71.6833 34.4137V28.7817ZM83.27 28.7817C83.27 26.4046 81.785 25.1246 79.1083 25.1246C76.4317 25.1246 74.965 26.4228 74.965 28.7817V34.4503C74.965 36.8457 76.4317 38.1074 79.1083 38.1074C81.785 38.1074 83.27 36.7908 83.27 34.4503V28.7817Z" fill="#394149"/>
<path d="M108.185 30.72C108.9 30.72 109.065 30.9577 109.065 31.5977V35.072C109.084 35.8903 108.92 36.7027 108.584 37.4493C108.247 38.1961 107.748 38.8582 107.122 39.3874C105.566 40.6226 103.606 41.2354 101.622 41.1063C96.8733 41.1063 94.2883 38.5646 94.2883 34.3406V28.672C94.2883 24.5029 96.965 21.9429 101.622 21.9429C105.288 21.9429 107.672 23.3874 108.68 26.2766C108.736 26.3852 108.767 26.5053 108.768 26.6275C108.77 26.7498 108.743 26.8709 108.69 26.9808C108.636 27.0908 108.558 27.187 108.461 27.2616C108.364 27.336 108.25 27.3871 108.13 27.4103L106.7 27.904C106.077 28.1234 105.82 27.9954 105.6 27.3554C105.296 26.5744 104.74 25.9165 104.02 25.4861C103.299 25.0556 102.455 24.8768 101.622 24.9783C98.9267 24.9783 97.46 26.2766 97.46 28.6354V34.4503C97.46 36.8457 98.945 38.1074 101.622 38.1074C104.298 38.1074 105.948 36.8823 105.948 35.0903V33.7371H101.97C101.31 33.7371 101.072 33.4811 101.072 32.8411V31.5977C101.072 30.9577 101.31 30.72 101.97 30.72H108.185Z" fill="#394149"/>
<path d="M116.637 28.7817C116.637 24.5577 119.313 22.016 123.97 22.016C128.627 22.016 131.303 24.5577 131.303 28.7817V34.4137C131.303 38.6377 128.608 41.1794 123.97 41.1794C119.332 41.1794 116.637 38.6377 116.637 34.4137V28.7817ZM128.205 28.7817C128.205 26.4046 126.72 25.1246 124.062 25.1246C121.403 25.1246 119.9 26.4228 119.9 28.7817V34.4503C119.9 36.8457 121.385 38.1074 124.062 38.1074C126.738 38.1074 128.205 36.7908 128.205 34.4503V28.7817Z" fill="#394149"/>
<path d="M139.938 22.9303C139.938 22.528 140.067 22.4 140.47 22.4H141.313C141.717 22.4 141.808 22.528 141.808 22.9303V40.2651C141.808 40.6674 141.808 40.7954 141.313 40.7954H140.47C140.067 40.7954 139.938 40.6674 139.938 40.2651V22.9303Z" fill="#394149"/>
<path d="M158.51 22.4C160.037 22.4 161.501 23.0049 162.581 24.0817C163.66 25.1584 164.267 26.6189 164.267 28.1417C164.267 29.6645 163.66 31.125 162.581 32.2017C161.501 33.2785 160.037 33.8834 158.51 33.8834H153.01V40.2651C153.01 40.6674 152.918 40.7954 152.533 40.7954H151.672C151.287 40.7954 151.14 40.6674 151.14 40.2651V22.9303C151.14 22.528 151.287 22.4 151.672 22.4H158.51ZM158.345 32.0731C158.87 32.0731 159.39 31.97 159.875 31.7698C160.359 31.5694 160.8 31.2757 161.171 30.9056C161.542 30.5355 161.837 30.0959 162.038 29.6124C162.238 29.1288 162.342 28.6104 162.342 28.0869C162.342 27.5633 162.238 27.0449 162.038 26.5613C161.837 26.0778 161.542 25.6382 161.171 25.2681C160.8 24.898 160.359 24.6043 159.875 24.4039C159.39 24.2037 158.87 24.1006 158.345 24.1006H152.845V32.0731H158.345Z" fill="#394149"/>
<path d="M178.585 22.0343C180.001 21.8785 181.429 22.1822 182.657 22.9003C183.885 23.6186 184.849 24.7128 185.405 26.0206C185.552 26.3131 185.405 26.5509 185.112 26.6971L184.305 27.0629C183.975 27.1909 183.847 27.1726 183.645 26.8251C183.23 25.8545 182.515 25.0408 181.606 24.5018C180.696 23.9627 179.638 23.7261 178.585 23.8263C175.487 23.8263 173.8 25.0514 173.8 27.2457C173.782 27.9162 174.008 28.5709 174.436 29.0884C174.864 29.6058 175.465 29.9516 176.128 30.0617C177.114 30.3824 178.137 30.579 179.172 30.6469C180.424 30.7134 181.66 30.9661 182.838 31.3966C183.742 31.6816 184.519 32.2679 185.04 33.0571C185.561 33.8463 185.794 34.7902 185.698 35.7303C185.698 39.1497 183.205 41.216 178.622 41.216C177.118 41.3875 175.601 41.0401 174.324 40.2315C173.046 39.4231 172.085 38.2021 171.6 36.7726C171.568 36.7075 171.55 36.636 171.549 36.5632C171.547 36.4904 171.562 36.4184 171.592 36.352C171.621 36.2856 171.666 36.2266 171.721 36.1792C171.776 36.1317 171.841 36.0971 171.912 36.0777L172.718 35.7851C172.782 35.7592 172.85 35.7467 172.919 35.7486C172.987 35.7504 173.055 35.7665 173.117 35.7957C173.179 35.825 173.234 35.8667 173.279 35.9184C173.324 35.9702 173.358 36.0305 173.378 36.096C173.788 37.129 174.518 38.0048 175.46 38.5967C176.403 39.1885 177.51 39.4655 178.622 39.3874C182.087 39.3874 183.792 38.1806 183.792 35.7303C183.825 35.0863 183.627 34.4516 183.233 33.9392C182.841 33.427 182.278 33.0703 181.647 32.9326C180.698 32.6504 179.72 32.4785 178.732 32.4206L176.752 32.1646C176.132 32.0335 175.52 31.8685 174.918 31.6709C174.324 31.4918 173.77 31.2 173.287 30.8114C172.8 30.3722 172.417 29.8317 172.163 29.2281C171.91 28.6245 171.793 27.9728 171.82 27.3189C171.948 24.1189 174.35 22.0343 178.585 22.0343Z" fill="#394149"/>
<path d="M195.58 34.5417C195.657 35.8349 196.227 37.0496 197.173 37.9377C198.119 38.8259 199.369 39.3203 200.667 39.3203C201.965 39.3203 203.216 38.8259 204.162 37.9377C205.108 37.0496 205.676 35.8349 205.755 34.5417V22.9303C205.755 22.528 205.883 22.4 206.287 22.4H207.13C207.533 22.4 207.662 22.528 207.662 22.9303V34.5234C207.662 38.6743 205.205 41.1794 200.677 41.1794C196.148 41.1794 193.692 38.6743 193.692 34.5234V22.9303C193.692 22.528 193.82 22.4 194.205 22.4H195.067C195.452 22.4 195.58 22.528 195.58 22.9303V34.5417Z" fill="#394149"/>
<path d="M232.962 22.4C233.365 22.4 233.493 22.528 233.493 22.9303V40.2651C233.493 40.6674 233.365 40.7954 232.962 40.7954H232.192C231.807 40.7954 231.678 40.6674 231.678 40.2651V29.7143C231.678 28.1792 231.783 26.6458 231.99 25.1246H231.88C231.308 26.5156 230.639 27.8658 229.882 29.1657L225.94 36.096C225.892 36.2163 225.808 36.3191 225.7 36.3909C225.592 36.4626 225.465 36.5001 225.335 36.4983H224.822C224.69 36.499 224.561 36.4612 224.45 36.3898C224.34 36.3184 224.251 36.2163 224.198 36.096L220.202 29.0926C219.492 27.8113 218.88 26.4788 218.368 25.1063H218.258C218.445 26.6414 218.544 28.1861 218.552 29.7326V40.2651C218.552 40.6674 218.423 40.7954 218.02 40.7954H217.305C216.902 40.7954 216.773 40.6674 216.773 40.2651V22.9303C216.773 22.528 216.902 22.4 217.305 22.4H217.965C218.115 22.3861 218.267 22.4188 218.398 22.4942C218.53 22.5695 218.634 22.6836 218.698 22.8206L225.115 34.1943L231.495 22.9303C231.697 22.5463 231.807 22.4914 232.21 22.4914L232.962 22.4Z" fill="#394149"/>
<path d="M23.3383 38.016V51.2366C23.3383 51.7435 23.1365 52.2295 22.7771 52.5877C22.418 52.9461 21.9307 53.1474 21.4225 53.1474C20.9145 53.1474 20.4272 52.9461 20.0679 52.5877C19.7085 52.2295 19.5067 51.7435 19.5067 51.2366V38.0343C20.0402 38.4229 20.6796 38.6397 21.34 38.656C22.0598 38.6765 22.765 38.4507 23.3383 38.016ZM39.655 34.1943C39.1688 34.1943 38.7024 34.387 38.3586 34.7299C38.0149 35.0727 37.8217 35.5379 37.8217 36.0229V38.3269C37.8217 38.8337 38.0235 39.3198 38.3828 39.678C38.742 40.0364 39.2293 40.2377 39.7375 40.2377C40.2457 40.2377 40.733 40.0364 41.0921 39.678C41.4515 39.3198 41.6533 38.8337 41.6533 38.3269V36.1143C41.6676 35.8521 41.6251 35.5899 41.5287 35.3456C41.4322 35.1013 41.2843 34.8804 41.0945 34.6982C40.905 34.5161 40.6782 34.3768 40.4299 34.2897C40.1815 34.2029 39.9172 34.1703 39.655 34.1943ZM15.345 43.0263C14.6853 43.0065 14.0467 42.79 13.5117 42.4046V55.6617C13.5117 56.171 13.7145 56.6594 14.0755 57.0194C14.4365 57.3795 14.9261 57.5817 15.4367 57.5817C15.9472 57.5817 16.4368 57.3795 16.7978 57.0194C17.1589 56.6594 17.3617 56.171 17.3617 55.6617V42.496C16.763 42.882 16.0566 43.0678 15.345 43.0263ZM33.6783 30.2263C33.4299 30.2139 33.1817 30.2521 32.9485 30.3384C32.7155 30.4247 32.5024 30.5574 32.3222 30.7284C32.1422 30.8996 31.999 31.1053 31.9011 31.3333C31.8034 31.5613 31.753 31.8069 31.7533 32.0549V42.24C31.7533 42.7493 31.9561 43.2377 32.3171 43.5977C32.6782 43.9578 33.1677 44.16 33.6783 44.16C34.1889 44.16 34.6786 43.9578 35.0396 43.5977C35.4006 43.2377 35.6033 42.7493 35.6033 42.24V32.1829C35.618 31.919 35.5751 31.6551 35.4776 31.4094C35.38 31.1636 35.2304 30.9418 35.0387 30.7593C34.8469 30.5768 34.6179 30.4379 34.3673 30.3523C34.1167 30.2665 33.8503 30.236 33.5867 30.2629L33.6783 30.2263ZM27.5917 34.1394C26.901 34.1347 26.2289 33.9176 25.6667 33.5177V46.8114C25.6667 47.3207 25.8694 47.8091 26.2304 48.1691C26.5916 48.5292 27.0811 48.7314 27.5917 48.7314C28.1022 48.7314 28.5917 48.5292 28.9529 48.1691C29.3139 47.8091 29.5167 47.3207 29.5167 46.8114V33.536C28.9351 33.9681 28.2251 34.1934 27.5 34.176L27.5917 34.1394ZM11.1833 44.3246V7.18629C11.1785 6.73359 10.9948 6.3011 10.6721 5.98269C10.3495 5.66428 9.9139 5.4857 9.46 5.48572H9.05667C8.60277 5.4857 8.16719 5.66428 7.84452 5.98269C7.52186 6.3011 7.33816 6.73359 7.33334 7.18629V44.3246C7.33334 44.7804 7.51491 45.2176 7.83809 45.54C8.16127 45.8624 8.59962 46.0434 9.05667 46.0434H9.46C9.91707 46.0434 10.3554 45.8624 10.6786 45.54C11.0018 45.2176 11.1833 44.7804 11.1833 44.3246ZM15.5467 41.6183H15.1433C14.6863 41.6183 14.2479 41.4373 13.9248 41.1149C13.6016 40.7925 13.42 40.3553 13.42 39.8994V11.6114C13.4248 11.1588 13.6085 10.7262 13.9312 10.4078C14.2539 10.0894 14.6894 9.91084 15.1433 9.91086H15.5467C16.0006 9.91084 16.4361 10.0894 16.7588 10.4078C17.0815 10.7262 17.2652 11.1588 17.27 11.6114V39.936C17.27 40.3919 17.0884 40.8291 16.7652 41.1515C16.4421 41.4738 16.0037 41.6549 15.5467 41.6549V41.6183ZM21.615 37.2663H21.1933C20.7412 37.2663 20.3075 37.0871 19.9877 36.7682C19.668 36.4493 19.4883 36.0168 19.4883 35.5657V16C19.486 15.7751 19.5283 15.552 19.6128 15.3436C19.6973 15.1352 19.8226 14.9455 19.9811 14.7857C20.1397 14.6258 20.3286 14.4989 20.5366 14.4123C20.7447 14.3257 20.9678 14.2811 21.1933 14.2811H21.615C22.0689 14.286 22.5025 14.4692 22.8217 14.791C23.1411 15.1128 23.32 15.5473 23.32 16V35.5657C23.32 36.0168 23.1403 36.4493 22.8206 36.7682C22.5009 37.0871 22.0673 37.2663 21.615 37.2663ZM27.6833 32.7863H27.2983C26.8444 32.7863 26.4088 32.6078 26.0861 32.2893C25.7635 31.9709 25.5798 31.5385 25.575 31.0857V20.5531C25.56 20.3184 25.5933 20.083 25.6733 19.8616C25.753 19.6403 25.8777 19.4375 26.0392 19.2662C26.2007 19.0947 26.3958 18.9583 26.6125 18.865C26.829 18.7719 27.0624 18.724 27.2983 18.7246H27.7017C28.1587 18.7246 28.5971 18.9056 28.9203 19.228C29.2435 19.5504 29.425 19.9876 29.425 20.4434V31.0491C29.4274 31.2764 29.3847 31.5019 29.299 31.7126C29.2136 31.9232 29.0871 32.1148 28.9267 32.2765C28.7665 32.4379 28.5758 32.5661 28.3653 32.6537C28.155 32.7413 27.9295 32.7863 27.7017 32.7863H27.6833ZM33.77 28.8549H33.3667C32.9096 28.8549 32.4713 28.6738 32.148 28.3515C31.8248 28.0291 31.6433 27.5919 31.6433 27.136V24.4114C31.6481 23.9587 31.8318 23.5262 32.1545 23.2079C32.4771 22.8893 32.9127 22.7109 33.3667 22.7109H33.77C34.2239 22.7109 34.6595 22.8893 34.9822 23.2079C35.3049 23.5262 35.4886 23.9587 35.4933 24.4114V27.136C35.4933 27.5888 35.3144 28.0232 34.995 28.3451C34.6758 28.6669 34.2423 28.8501 33.7883 28.8549H33.77Z" fill="#394149"/>
</svg>
