<svg width="360" height="281" viewBox="0 0 360 281" fill="none" xmlns="http://www.w3.org/2000/svg">
<g clip-path="url(#clip0_10:206)">
<path d="M317.18 260.566C317.154 260.451 314.617 248.881 319.798 239.271C324.98 229.662 336.041 225.424 336.152 225.382L336.658 225.193L336.777 225.719C336.803 225.835 339.34 237.405 334.159 247.015C328.977 256.624 317.916 260.862 317.805 260.903L317.299 261.093L317.18 260.566ZM335.964 226.478C333.749 227.431 325.004 231.602 320.628 239.718C316.251 247.835 317.572 257.434 317.993 259.807C320.207 258.857 328.948 254.692 333.329 246.567C337.706 238.451 336.386 228.853 335.964 226.478Z" fill="white"/>
<path d="M330.199 243.644C320.887 249.246 317.301 260.374 317.301 260.374C317.301 260.374 328.812 262.418 338.124 256.816C347.436 251.214 351.022 240.086 351.022 240.086C351.022 240.086 339.511 238.042 330.199 243.644Z" fill="#D0CDE1"/>
<path d="M127.883 209.934C126.776 209.934 125.657 209.916 124.559 209.882L124.584 209.084C126.161 209.133 127.77 209.147 129.354 209.125L129.365 209.924C128.872 209.93 128.378 209.934 127.883 209.934ZM134.167 209.749L134.12 208.952C135.699 208.859 137.299 208.728 138.874 208.563L138.957 209.356C137.37 209.523 135.759 209.655 134.167 209.749V209.749ZM119.761 209.624C118.169 209.502 116.56 209.342 114.979 209.148L115.076 208.356C116.645 208.548 118.242 208.707 119.822 208.828L119.761 209.624ZM143.723 208.746L143.604 207.958C145.172 207.719 146.753 207.443 148.301 207.136L148.457 207.918C146.897 208.228 145.304 208.507 143.723 208.746V208.746ZM110.224 208.455C108.651 208.188 107.063 207.882 105.505 207.543L105.674 206.763C107.221 207.099 108.796 207.403 110.357 207.667L110.224 208.455ZM153.148 206.873L152.956 206.098C154.496 205.718 156.044 205.297 157.559 204.848L157.785 205.613C156.26 206.066 154.699 206.49 153.148 206.873ZM100.834 206.416C99.2906 206.005 97.738 205.554 96.2188 205.073L96.4592 204.313C97.967 204.789 99.5077 205.237 101.039 205.644L100.834 206.416ZM162.36 204.14L162.098 203.386C163.592 202.867 165.095 202.305 166.566 201.717L166.862 202.458C165.381 203.051 163.866 203.617 162.36 204.14ZM91.659 203.515C90.1605 202.964 88.6528 202.37 87.1779 201.749L87.4878 201.013C88.9513 201.629 90.4474 202.219 91.9345 202.766L91.659 203.515ZM171.272 200.574L170.941 199.848C172.376 199.196 173.819 198.5 175.229 197.779L175.592 198.49C174.171 199.216 172.718 199.917 171.272 200.574ZM179.812 196.209L179.417 195.516C180.793 194.73 182.167 193.905 183.5 193.062L183.926 193.736C182.584 194.586 181.199 195.418 179.812 196.209V196.209ZM187.924 191.077L187.467 190.423C188.763 189.518 190.056 188.569 191.311 187.605L191.797 188.238C190.533 189.21 189.23 190.165 187.924 191.077V191.077ZM66.2636 189.953C64.9753 189.017 63.6883 188.037 62.4381 187.039L62.9363 186.415C64.1769 187.406 65.4541 188.378 66.7325 189.307L66.2636 189.953ZM195.538 185.225L195.023 184.615C196.231 183.596 197.433 182.534 198.596 181.458L199.138 182.044C197.966 183.128 196.755 184.198 195.538 185.225V185.225ZM58.7503 183.954C57.5504 182.903 56.3583 181.81 55.2073 180.705L55.76 180.129C56.9024 181.226 58.0853 182.311 59.276 183.354L58.7503 183.954ZM202.591 178.701L202.023 178.141C203.136 177.012 204.238 175.845 205.296 174.67L205.889 175.204C204.823 176.388 203.713 177.564 202.591 178.701V178.701ZM51.8168 177.3C50.716 176.142 49.6287 174.945 48.5854 173.743L49.1883 173.22C50.2237 174.413 51.3025 175.601 52.3952 176.749L51.8168 177.3ZM209.025 171.56L208.408 171.054C209.414 169.829 210.405 168.566 211.353 167.298L211.992 167.776C211.037 169.054 210.039 170.327 209.025 171.56ZM45.5197 170.045C44.5311 168.796 43.5577 167.506 42.6263 166.212L43.2741 165.745C44.1984 167.03 45.1644 168.31 46.1456 169.55L45.5197 170.045ZM214.783 163.86L214.123 163.412C215.013 162.101 215.885 160.752 216.714 159.401L217.395 159.819C216.559 161.18 215.68 162.539 214.783 163.86ZM39.9116 162.252C39.0419 160.918 38.1907 159.546 37.3813 158.173L38.0689 157.768C38.8721 159.13 39.7169 160.492 40.5801 161.815L39.9116 162.252ZM219.818 155.662L219.12 155.276C219.886 153.889 220.631 152.465 221.333 151.043L222.049 151.397C221.341 152.83 220.59 154.265 219.818 155.662H219.818ZM224.081 147.033L223.35 146.712C223.986 145.26 224.597 143.772 225.165 142.291L225.911 142.577C225.338 144.07 224.722 145.569 224.081 147.033H224.081ZM30.9493 145.31C30.3374 143.842 29.7514 142.339 29.2077 140.844L29.958 140.571C30.4974 142.055 31.0789 143.546 31.686 145.003L30.9493 145.31ZM227.533 138.04L226.775 137.789C227.273 136.288 227.743 134.754 228.172 133.229L228.941 133.445C228.508 134.982 228.034 136.528 227.533 138.04V138.04ZM27.6701 136.291C27.1952 134.77 26.7489 133.216 26.3437 131.672L27.1159 131.469C27.5179 133.001 27.9609 134.544 28.4321 136.053L27.6701 136.291ZM230.134 128.79L229.357 128.609C229.714 127.07 230.041 125.499 230.328 123.94L231.113 124.084C230.824 125.656 230.495 127.239 230.134 128.79ZM25.2322 126.996C24.8993 125.437 24.598 123.849 24.3369 122.274L25.1242 122.144C25.3836 123.706 25.6825 125.282 26.0129 126.829L25.2322 126.996ZM231.874 119.34L231.083 119.231C231.298 117.668 231.479 116.074 231.622 114.493L232.417 114.565C232.273 116.158 232.09 117.764 231.874 119.34ZM23.6591 117.517C23.4708 115.937 23.3163 114.328 23.1996 112.734L23.9958 112.676C24.1114 114.258 24.265 115.854 24.4519 117.423L23.6591 117.517ZM232.742 109.771L231.945 109.735C232.015 108.153 232.052 106.549 232.052 104.967H232.85C232.85 106.561 232.814 108.177 232.742 109.771ZM22.9577 107.934C22.9304 106.955 22.9166 105.957 22.9164 104.967C22.9164 104.353 22.9217 103.739 22.9322 103.128L23.7304 103.142C23.7199 103.749 23.7146 104.357 23.7146 104.967C23.7148 105.949 23.7287 106.941 23.7555 107.912L22.9577 107.934ZM23.9198 98.3762L23.1232 98.3263C23.2227 96.7314 23.3603 95.1206 23.5316 93.5383L24.3252 93.6243C24.155 95.1946 24.0188 96.7932 23.9198 98.3762H23.9198ZM231.536 93.5064C231.377 91.9327 231.158 91.1655 230.926 89.5987L231.716 89.4821C231.949 91.0608 232.149 92.266 232.31 93.8515L231.536 93.5064ZM24.9466 88.8961L24.1578 88.7741C24.4023 87.195 24.6865 85.6034 25.0024 84.043L25.7846 84.2013C25.4713 85.7498 25.1893 87.3293 24.9467 88.8961H24.9466ZM230.12 84.8987C229.816 83.3417 229.473 81.7742 229.099 80.2401L229.875 80.0515C230.251 81.5973 230.597 83.1768 230.904 84.7456L230.12 84.8987ZM26.8374 79.5501L26.0631 79.356C26.4507 77.81 26.8801 76.2512 27.3392 74.7225L28.1035 74.9521C27.6481 76.469 27.2221 78.016 26.8374 79.5501ZM227.865 75.6334C227.419 74.1135 226.933 72.5847 226.419 71.0888L227.173 70.8292C227.692 72.3366 228.182 73.8775 228.631 75.4089L227.865 75.6334ZM29.5852 70.405L28.8322 70.1403C29.3626 68.6314 29.9354 67.1152 30.5344 65.6339L31.2746 65.9333C30.68 67.403 30.1115 68.9077 29.5852 70.405V70.405ZM224.765 66.6155C224.182 65.1465 223.559 63.6723 222.911 62.2335L223.639 61.9057C224.292 63.3556 224.92 64.8411 225.507 66.3213L224.765 66.6155ZM33.1678 61.5457L32.4425 61.2125C33.1092 59.7606 33.8187 58.3047 34.5515 56.8852L35.2608 57.2512C34.5336 58.66 33.8295 60.1048 33.1678 61.5457ZM220.858 57.9395C220.144 56.5303 219.387 55.1182 218.609 53.7429L219.303 53.3497C220.088 54.7357 220.85 56.1585 221.57 57.5786L220.858 57.9395ZM37.5489 53.0585L36.8571 52.6602C37.6534 51.2775 38.4931 49.8935 39.3531 48.5469L40.0258 48.9764C39.1725 50.3129 38.339 51.6864 37.5489 53.0585ZM216.169 49.652C215.325 48.3093 214.442 46.9717 213.544 45.6761L214.199 45.2213C215.105 46.5268 215.995 47.8745 216.844 49.2276L216.169 49.652ZM42.6867 45.0129L42.0343 44.553C42.9545 43.2479 43.9166 41.9471 44.8945 40.6866L45.5252 41.1758C44.5548 42.4269 43.5997 43.7178 42.6867 45.0129ZM210.739 41.8231C209.777 40.5632 208.775 39.3108 207.761 38.1006L208.373 37.5878C209.395 38.8074 210.404 40.0692 211.373 41.3387L210.739 41.8231ZM48.5351 37.4732L47.9274 36.9556C48.9601 35.7427 50.0364 34.5354 51.1264 33.3673L51.7098 33.9118C50.6283 35.0712 49.5601 36.2695 48.5351 37.4732ZM204.616 34.5165C203.544 33.3494 202.432 32.1926 201.311 31.0787L201.873 30.5123C203.003 31.635 204.124 32.8004 205.204 33.9763L204.616 34.5165ZM55.0425 30.4998L54.4843 29.9292C55.6258 28.8126 56.8069 27.7086 57.9947 26.6481L58.5263 27.2436C57.3475 28.296 56.1753 29.3916 55.0425 30.4999V30.4998ZM197.852 27.794C196.677 26.7282 195.464 25.677 194.246 24.6696L194.755 24.0546C195.982 25.0696 197.205 26.1287 198.389 27.2027L197.852 27.794ZM62.154 24.1493L61.6501 23.5304C62.8846 22.525 64.1605 21.5335 65.4424 20.5832L65.9179 21.2244C64.6456 22.1676 63.3792 23.1515 62.154 24.1493H62.154ZM69.8099 18.475L69.3643 17.8128C70.6856 16.9238 72.0459 16.0532 73.4075 15.2248L73.8222 15.9069C72.4711 16.7289 71.1212 17.593 69.8099 18.475H69.8099ZM77.9469 13.5255L77.5637 12.8251C78.9616 12.0602 80.3949 11.3181 81.8238 10.619L82.1746 11.3362C80.7566 12.0298 79.3342 12.7662 77.9469 13.5255ZM174.281 11.6761C172.861 10.9684 171.406 10.2848 169.956 9.64424L170.279 8.91422C171.74 9.55966 173.206 10.2486 174.637 10.9616L174.281 11.6761ZM86.4966 9.34355L86.1794 8.61118C87.6402 7.97802 89.1345 7.37077 90.6207 6.8062L90.904 7.55259C89.4292 8.11269 87.9463 8.71525 86.4966 9.34355ZM165.542 7.81315C164.064 7.24002 162.551 6.69318 161.045 6.18805L161.3 5.43114C162.816 5.94036 164.341 6.49128 165.83 7.0691L165.542 7.81315ZM95.4003 5.96258L95.1516 5.2041C96.6686 4.70677 98.2163 4.23847 99.7516 3.81266L99.965 4.58166C98.4414 5.00435 96.9055 5.46896 95.4003 5.96258H95.4003ZM156.49 4.77576C154.968 4.34176 153.415 3.93758 151.875 3.57452L152.058 2.79773C153.61 3.16352 155.175 3.57082 156.709 4.00793L156.49 4.77576ZM104.589 3.41258L104.411 2.63442C105.966 2.27915 107.55 1.95546 109.119 1.6725L109.261 2.45786C107.704 2.73888 106.132 3.06004 104.589 3.41258ZM147.209 2.58765C145.655 2.2959 144.071 2.03634 142.503 1.81612L142.614 1.02569C144.194 1.24766 145.79 1.50919 147.356 1.80307L147.209 2.58765ZM113.973 1.71907L113.867 0.927861C115.447 0.717002 117.054 0.539661 118.643 0.401297L118.713 1.19641C117.136 1.33399 115.541 1.50975 113.973 1.71907ZM137.766 1.26111C136.194 1.11299 134.594 0.998796 133.009 0.92221L133.048 0.124763C134.644 0.202131 136.257 0.317108 137.841 0.466405L137.766 1.26111ZM123.472 0.89025L123.439 0.0928207C124.906 0.0316286 126.401 0.000452166 127.883 6.10352e-05L128.244 0.000642629L128.242 0.798869L127.883 0.798288C126.412 0.798659 124.928 0.82964 123.472 0.89025V0.89025Z" fill="white"/>
<path d="M360 260.339H67.4501V261.137H360V260.339Z" fill="white"/>
<path d="M238.674 126.13L242.665 187.992C242.665 187.992 252.244 212.338 251.845 235.487C251.845 235.487 248.253 244.667 251.046 246.263C253.84 247.859 255.437 249.057 253.84 250.254C252.244 251.451 251.046 254.245 252.244 255.043C253.441 255.842 253.84 257.039 253.441 257.039H241.468C241.468 257.039 243.862 251.052 240.27 249.456C236.678 247.859 238.674 243.868 238.674 243.868L211.933 165.642L190.78 237.482C190.78 237.482 194.372 239.877 191.579 241.074C188.785 242.272 187.587 239.877 188.785 242.272C189.982 244.667 188.386 245.864 188.386 246.263C188.386 246.662 176.412 245.066 176.412 245.066C176.412 245.066 182.399 239.877 179.605 238.68C176.811 237.482 175.614 236.285 176.412 235.487C177.21 234.689 180.403 227.106 180.403 227.106C180.403 227.106 182 198.369 182.399 197.172C182.798 195.975 182.399 190.387 182.399 187.593C182.399 184.8 182 173.624 183.197 170.831C184.395 168.037 185.592 133.713 191.978 129.722C198.363 125.731 238.674 126.13 238.674 126.13Z" fill="#AFABFF"/>
<path d="M187.987 244.267C187.987 244.267 195.969 260.631 190.381 262.627C184.794 264.622 177.61 263.026 176.013 265.42C174.417 267.815 156.856 270.609 156.457 264.622C156.058 258.636 175.614 247.46 175.614 247.46L178.162 243.358L187.987 244.267Z" fill="#AFABFF"/>
<path d="M252.643 256.241C252.643 256.241 260.625 272.604 255.038 274.6C249.45 276.596 242.266 274.999 240.67 277.394C239.073 279.789 221.512 282.582 221.113 276.596C220.714 270.609 240.27 259.434 240.27 259.434L242.818 255.332L252.643 256.241Z" fill="#AFABFF"/>
<path d="M215.725 50.897C222.999 50.897 228.896 45.0003 228.896 37.7263C228.896 30.4523 222.999 24.5555 215.725 24.5555C208.451 24.5555 202.554 30.4523 202.554 37.7263C202.554 45.0003 208.451 50.897 215.725 50.897Z" fill="#A0616A"/>
<path d="M224.705 44.7106L223.109 56.2849L211.135 65.4645L207.942 61.0743V45.908L224.705 44.7106Z" fill="#A0616A"/>
<path d="M205.947 59.4779C205.947 59.4779 218.319 60.6753 224.705 56.285L237.477 131.717C237.477 131.717 192.377 135.309 190.381 132.915V109.367L198.364 71.0522L205.947 59.4779Z" fill="white"/>
<path d="M223.606 52.6785L227.898 56.285C227.898 56.285 245.459 59.0788 244.262 63.8681L239.472 120.542L241.069 139.7C241.069 139.7 227.499 136.108 217.122 139.7C206.745 143.292 214.989 62.5098 214.989 62.5098C214.989 62.5098 224.503 53.8614 223.606 52.6785Z" fill="#D0CDE1"/>
<path d="M207.942 57.0471C207.942 57.0471 195.171 66.2629 193.574 72.2496C191.978 78.2363 186.789 141.296 186.789 141.296C186.789 141.296 189.184 140.099 190.381 142.094C191.579 144.09 209.938 60.2039 207.942 57.0471Z" fill="#D0CDE1"/>
<path d="M202.56 37.1524C202.56 37.1524 201.135 35.0137 201.683 32.7105C202.011 31.4028 202.14 30.0534 202.067 28.7072C202.067 28.7072 203.219 24.9782 204.37 22.8943C205.522 20.8104 204.973 19.933 208.593 19.2749C212.212 18.6169 210.732 13.9007 220.273 19.0007C220.595 19.4502 221.043 19.7943 221.561 19.9895C222.078 20.1847 222.641 20.2223 223.18 20.0975C225.154 19.7136 225.867 22.4556 225.867 22.4556C225.867 22.4556 227.183 21.6878 227.677 22.7846C228.17 23.8814 231.689 22.1264 231.689 29.5296C231.689 36.9329 227.685 43.5459 227.685 43.5459C227.685 43.5459 227.978 31.0927 221.453 29.8315C214.927 28.5702 207.907 24.8959 206.207 29.6121C205.29 32.259 204.066 34.7897 202.56 37.1524V37.1524Z" fill="#FFF9C7"/>
<path d="M227.828 40.1133C228.539 40.1133 229.115 39.3449 229.115 38.3971C229.115 37.4492 228.539 36.6808 227.828 36.6808C227.117 36.6808 226.541 37.4492 226.541 38.3971C226.541 39.3449 227.117 40.1133 227.828 40.1133Z" fill="#A0616A"/>
<path d="M243.064 140.498L240.203 149.834C240.203 149.834 239.472 167.238 229.893 164.844C220.315 162.449 232.687 142.094 232.687 142.094L235.481 137.704L243.064 140.498Z" fill="#A0616A"/>
<path d="M188.785 140.498L185.924 149.834C185.924 149.834 185.193 167.238 175.614 164.844C166.035 162.449 178.408 142.094 178.408 142.094L181.202 137.704L188.785 140.498Z" fill="#A0616A"/>
<path d="M241.069 61.0744C241.069 61.0744 247.454 59.4779 249.45 70.254C251.446 81.03 253.84 111.762 253.84 111.762L244.262 144.09C244.262 144.09 234.683 138.901 232.687 139.7L240.225 111.634L233.885 83.0256C233.885 83.0256 239.472 61.0744 241.069 61.0744Z" fill="#D0CDE1"/>
<path opacity="0.15" d="M231.784 83.5715L240.165 111.509L231.784 139.847L236.573 111.509L231.784 83.5715Z" fill="#AFABFF"/>
<path d="M193.574 83.0256L179.206 139.7C179.206 139.7 186.785 142.201 189.579 144.197L193.574 83.0256Z" fill="#D0CDE1"/>
<path d="M42.8497 225.453C64.8921 225.453 82.761 207.584 82.761 185.542C82.761 163.499 64.8921 145.63 42.8497 145.63C20.8073 145.63 2.93836 163.499 2.93836 185.542C2.93836 207.584 20.8073 225.453 42.8497 225.453Z" fill="white"/>
<path opacity="0.1" d="M42.8497 219.865C61.8062 219.865 77.1734 204.498 77.1734 185.542C77.1734 166.585 61.8062 151.218 42.8497 151.218C23.8932 151.218 8.52595 166.585 8.52595 185.542C8.52595 204.498 23.8932 219.865 42.8497 219.865Z" fill="#AFABFF"/>
<path d="M41.205 205.796V200.8C38.6797 200.751 36.0672 199.86 34.5433 198.624L35.5882 195.31C37.3991 196.667 39.5952 197.412 41.8581 197.436C44.9495 197.436 47.0394 195.408 47.0394 192.589C47.0394 189.869 45.3413 188.187 42.1193 186.703C37.6782 184.725 34.9351 182.449 34.9351 178.146C34.9351 174.041 37.5041 170.924 41.5098 170.182V165.187H44.2093V169.985C46.2222 170.012 48.1857 170.613 49.8696 171.716L48.781 174.98C47.1659 173.875 45.2521 173.288 43.2949 173.299C39.9424 173.299 38.6797 175.574 38.6797 177.552C38.6797 180.124 40.2907 181.41 44.0787 183.191C48.5633 185.269 50.8275 187.841 50.8275 192.243C50.8275 196.15 48.4327 199.811 43.948 200.651V205.796H41.205Z" fill="#C0A3FF"/>
<path d="M85.0111 266.724C56.8299 270.927 28.1812 270.927 4.76837e-06 266.724V257.146C28.2111 260.924 56.8 260.924 85.0111 257.146V266.724Z" fill="white"/>
<path d="M85.0111 251.957C56.8299 256.16 28.1812 256.16 4.76837e-06 251.957V242.378C28.2111 246.157 56.8 246.157 85.0111 242.378V251.957Z" fill="white"/>
<path d="M85.0111 237.19C56.8299 241.393 28.1812 241.393 4.76837e-06 237.19V227.611C28.2111 231.389 56.8 231.389 85.0111 227.611V237.19Z" fill="white"/>
</g>
<defs>
<clipPath id="clip0_10:206">
<rect width="360" height="280.18" fill="white"/>
</clipPath>
</defs>
</svg>
