<svg width="558" height="408" viewBox="0 0 558 408" fill="none" xmlns="http://www.w3.org/2000/svg">
<g clip-path="url(#clip0_6:150)">
<path d="M311.425 401.522C422.302 401.522 512.186 311.638 512.186 200.761C512.186 89.8837 422.302 0 311.425 0C200.548 0 110.664 89.8837 110.664 200.761C110.664 311.638 200.548 401.522 311.425 401.522Z" fill="#F2F2F2"/>
<path d="M153.915 39.013L155.342 68.7647C161.258 76.6546 167.64 85.6834 173.938 95.5236L174.837 50.1344L175.334 50.4515C168.048 45.2469 160.642 41.2649 153.419 38.7372L153.915 39.013Z" fill="#C0A3FF"/>
<path d="M154.302 67.3824L152.92 38.5629C144.808 35.7963 136.937 34.8786 129.743 36.1616C129.368 36.2284 129 36.3052 128.633 36.3832C130.461 38.3444 141.114 49.9268 154.302 67.3824Z" fill="#C0A3FF"/>
<path d="M219.801 102.877L220.28 103.334C218.314 99.6364 216.23 96.0413 214.028 92.5489L200.613 145.335L200.386 145.135C201.356 147.45 202.278 149.75 203.153 152.034L219.801 102.877Z" fill="#C0A3FF"/>
<path d="M199.365 72.8676L199.859 73.2629C192.766 64.8593 184.703 57.3253 175.838 50.8183L174.922 97.0724C180.783 106.322 186.03 115.433 190.664 124.405L199.365 72.8676Z" fill="#C0A3FF"/>
<path d="M102.05 87.3082C102.804 95.1044 104.343 102.804 106.645 110.291L186.643 118.543C182.467 110.841 178.156 103.616 173.971 97.0309L102.253 87.9372L102.05 87.3082Z" fill="#C0A3FF"/>
<path d="M109.555 118.925L109.34 118.297L190.306 125.494C189.328 123.58 188.339 121.693 187.339 119.83L107.045 111.548L106.834 110.919C107.643 113.558 108.55 116.227 109.555 118.925Z" fill="#C0A3FF"/>
<path d="M213.116 91.4483L213.603 91.8774C209.589 85.5641 205.153 79.5288 200.327 73.8127L191.509 126.047C194.565 132.047 197.333 137.963 199.813 143.794L213.116 91.4483Z" fill="#C0A3FF"/>
<path d="M211.404 178.703C214.622 192.628 215.841 205.794 215.036 218.055C219.564 208.408 236.783 168.442 230.346 131.196L211.404 178.703Z" fill="#C0A3FF"/>
<path d="M124.408 147.076C128.692 152.847 133.358 158.324 138.375 163.471L138.179 162.773L210.201 177.59C208.327 169.814 205.989 162.158 203.198 154.663L124.408 147.076Z" fill="#C0A3FF"/>
<path d="M153.68 67.8685C139.407 48.9863 128.145 37.052 127.983 36.8812L128.169 36.4834C117.338 38.9423 109.69 46.3115 105.483 56.9779L153.68 67.8685Z" fill="#C0A3FF"/>
<path d="M203.819 153.806C204.085 154.516 204.356 155.228 204.613 155.935C207.086 162.711 209.189 169.617 210.911 176.622L229.674 129.565L230.132 130.024C228.944 123.476 226.932 117.105 224.142 111.063C223.035 108.694 221.877 106.361 220.667 104.063L203.819 153.806Z" fill="#C0A3FF"/>
<path d="M173.133 95.7188C166.899 85.9948 160.589 77.0745 154.741 69.2774L105.438 58.1366L105.27 57.5143C102.193 65.6199 101.067 75.5775 101.999 86.6992L173.133 95.7188Z" fill="#C0A3FF"/>
<path d="M210.493 178.826L138.998 164.117C169.07 194.988 211.143 218.663 213.828 220.159C215.081 206.558 213.66 192.588 210.493 178.826Z" fill="#C0A3FF"/>
<path d="M202.692 153.396L202.708 153.349C199.27 144.286 195.347 135.415 190.955 126.774L109.79 119.559C111.168 123.208 112.726 126.896 114.463 130.623C116.992 135.933 120.001 141.002 123.451 145.765L202.692 153.396Z" fill="#C0A3FF"/>
<path d="M305.937 139.225L288.061 163.05C287.584 172.899 286.741 183.924 285.316 195.52L314.958 161.135L315.138 161.696C312.846 153.04 309.682 145.25 305.731 138.696L305.937 139.225Z" fill="#C0A3FF"/>
<path d="M288.141 161.322L305.458 138.243C300.975 130.939 295.498 125.212 289.139 121.611C288.808 121.424 288.475 121.248 288.143 121.074C288.3 123.751 289.117 139.466 288.141 161.322Z" fill="#C0A3FF"/>
<path d="M315.949 230.436L316.026 231.093C316.87 226.991 317.558 222.893 318.09 218.799L274.09 250.897L274.043 250.598C273.313 253.001 272.556 255.36 271.773 257.677L315.949 230.436Z" fill="#C0A3FF"/>
<path d="M319.349 194.288L319.478 194.907C319.375 183.911 317.97 172.966 315.293 162.3L285.085 197.34C283.7 208.202 281.931 218.566 279.777 228.432L319.349 194.288Z" fill="#C0A3FF"/>
<path d="M235.188 143.341C230.796 149.826 227.07 156.739 224.068 163.973L280.419 221.352C282.115 212.757 283.403 204.443 284.379 196.701L234.944 143.955L235.188 143.341Z" fill="#C0A3FF"/>
<path d="M220.803 172.479L221.038 171.858L278.806 229.042C279.273 226.945 279.716 224.86 280.134 222.787L223.574 165.196L223.813 164.577C222.753 167.126 221.75 169.76 220.803 172.479Z" fill="#C0A3FF"/>
<path d="M318.09 217.369L318.191 218.011C319.126 210.588 319.559 203.11 319.487 195.629L279.38 230.235C277.907 236.806 276.266 243.128 274.457 249.201L318.09 217.369Z" fill="#C0A3FF"/>
<path d="M261.118 283.48C254.715 296.257 247.257 307.175 238.817 316.106C248.457 311.563 287.209 291.764 306.009 258.972L261.118 283.48Z" fill="#C0A3FF"/>
<path d="M214.287 203.634C213.906 210.811 214.007 218.005 214.588 225.169L214.882 224.507L260.902 281.855C264.418 274.672 267.5 267.284 270.132 259.731L214.287 203.634Z" fill="#C0A3FF"/>
<path d="M287.352 161.299C288.403 137.653 287.341 121.278 287.325 121.043L287.721 120.855C277.811 115.841 267.221 116.639 257.177 122.17L287.352 161.299Z" fill="#C0A3FF"/>
<path d="M271.157 259.467C270.908 260.184 270.663 260.905 270.409 261.613C267.992 268.409 265.207 275.069 262.066 281.563L306.531 257.287L306.591 257.933C309.852 252.133 312.366 245.942 314.071 239.509C314.73 236.978 315.326 234.442 315.859 231.901L271.157 259.467Z" fill="#C0A3FF"/>
<path d="M284.571 195.156C285.972 183.691 286.802 172.796 287.271 163.061L256.403 123.034L256.671 122.448C249.131 126.728 241.913 133.679 235.538 142.84L284.571 195.156Z" fill="#C0A3FF"/>
<path d="M260.338 282.993L214.655 226.065C218.127 269.021 235.43 314.09 236.544 316.955C246.184 307.279 254 295.613 260.338 282.993Z" fill="#C0A3FF"/>
<path d="M270.55 258.432L270.592 258.406C273.725 249.233 276.362 239.898 278.49 230.442L220.58 173.117C219.314 176.807 218.161 180.64 217.121 184.619C215.683 190.322 214.767 196.145 214.386 202.014L270.55 258.432Z" fill="#C0A3FF"/>
<path d="M127.69 171.033L138.243 198.887C146.308 204.562 155.168 211.176 164.2 218.587L151.025 175.143L151.595 175.291C143.057 172.593 134.783 171.096 127.133 170.924L127.69 171.033Z" fill="#C0A3FF"/>
<path d="M136.827 197.894L126.604 170.913C118.034 170.789 110.265 172.349 103.82 175.793C103.484 175.972 103.158 176.159 102.833 176.347C105.178 177.647 118.889 185.369 136.827 197.894Z" fill="#C0A3FF"/>
<path d="M210.09 211.405L210.686 211.691C207.674 208.782 204.581 206.007 201.407 203.367L204.965 257.714L204.687 257.594C206.325 259.496 207.913 261.399 209.451 263.3L210.09 211.405Z" fill="#C0A3FF"/>
<path d="M181.378 189.182L181.97 189.405C172.627 183.605 162.63 178.932 152.188 175.484L165.613 219.756C174.047 226.741 181.854 233.784 189.034 240.884L181.378 189.182Z" fill="#C0A3FF"/>
<path d="M93.2924 232.995C96.419 240.176 100.263 247.023 104.766 253.432L183.398 236.552C177.046 230.519 170.712 224.98 164.696 220.011L93.6803 233.53L93.2924 232.995Z" fill="#C0A3FF"/>
<path d="M110.203 260.743L109.804 260.213L189.029 242.031C187.508 240.513 185.984 239.024 184.457 237.562L105.535 254.504L105.14 253.971C106.725 256.231 108.413 258.488 110.203 260.743Z" fill="#C0A3FF"/>
<path d="M200.2 202.602L200.795 202.859C195.026 198.096 188.942 193.727 182.585 189.783L190.345 242.185C195.106 246.947 199.567 251.717 203.728 256.496L200.2 202.602Z" fill="#C0A3FF"/>
<path d="M225.542 286.113C232.906 298.361 238.135 310.505 241.159 322.415C242.483 311.841 246.506 268.51 228.872 235.077L225.542 286.113Z" fill="#C0A3FF"/>
<path d="M133.03 282.925C138.888 287.089 145.018 290.855 151.38 294.2L150.979 293.597L224.053 285.426C219.868 278.611 215.277 272.052 210.307 265.787L133.03 282.925Z" fill="#C0A3FF"/>
<path d="M136.386 198.548C116.975 185.002 102.576 177.134 102.369 177.021L102.423 176.585C92.8818 182.272 87.8868 191.644 87.182 203.089L136.386 198.548Z" fill="#C0A3FF"/>
<path d="M210.632 264.779C211.105 265.373 211.582 265.966 212.045 266.559C216.492 272.239 220.626 278.157 224.43 284.286L227.728 233.734L228.306 234.029C225.152 228.169 221.269 222.732 216.748 217.848C214.963 215.937 213.14 214.076 211.279 212.265L210.632 264.779Z" fill="#C0A3FF"/>
<path d="M163.494 219.022C154.56 211.701 145.802 205.168 137.83 199.56L87.4972 204.205L87.1459 203.664C86.7242 212.324 88.7317 222.142 93.056 232.431L163.494 219.022Z" fill="#C0A3FF"/>
<path d="M224.712 286.511L152.173 294.622C190.314 314.685 237.644 324.197 240.661 324.79C237.648 311.467 231.979 298.62 224.712 286.511Z" fill="#C0A3FF"/>
<path d="M209.433 264.738L209.434 264.688C203.363 257.132 196.89 249.907 190.043 243.047L110.622 261.274C113.061 264.318 115.682 267.344 118.486 270.352C122.533 274.62 126.961 278.51 131.715 281.974L209.433 264.738Z" fill="#C0A3FF"/>
<path d="M557.937 341.24C557.937 365.318 434.075 407.981 281.285 407.981C128.494 407.981 4.63312 365.318 4.63312 341.24C4.63312 317.162 128.494 320.788 281.285 320.788C434.075 320.788 557.937 317.163 557.937 341.24Z" fill="#3F3D56"/>
<path opacity="0.1" d="M557.937 341.24C557.937 365.318 434.075 407.981 281.285 407.981C128.494 407.981 4.63312 365.318 4.63312 341.24C4.63312 317.162 128.494 320.788 281.285 320.788C434.075 320.788 557.937 317.163 557.937 341.24Z" fill="black"/>
<path d="M281.285 384.837C434.075 384.837 557.937 365.318 557.937 341.24C557.937 317.163 434.075 297.644 281.285 297.644C128.494 297.644 4.63312 317.163 4.63312 341.24C4.63312 365.318 128.494 384.837 281.285 384.837Z" fill="#3F3D56"/>
<path opacity="0.1" d="M329.248 295.672C329.248 321.904 292.684 313.791 247.914 313.791C203.145 313.791 167.124 321.904 167.124 295.672C167.124 269.44 203.683 263.735 248.453 263.735C293.222 263.735 329.248 269.44 329.248 295.672Z" fill="black"/>
<path d="M329.248 289.213C329.248 315.446 292.684 307.332 247.914 307.332C203.145 307.332 167.124 315.446 167.124 289.213C167.124 262.981 203.683 257.276 248.453 257.276C293.222 257.276 329.248 262.981 329.248 289.213Z" fill="#3F3D56"/>
<path d="M185.226 217.033C186.211 216.332 187.298 215.787 188.449 215.417C195.744 212.703 203.389 211.039 211.152 210.475C217.903 209.996 225.22 210.565 230.493 214.808C231.313 215.41 231.984 216.192 232.455 217.093C233.118 218.525 232.917 220.189 232.702 221.752C232.654 222.358 232.501 222.952 232.25 223.506C231.541 224.857 229.794 225.33 228.277 225.168C226.759 225.006 225.336 224.364 223.839 224.066C222.913 223.905 221.976 223.809 221.036 223.781L211.649 223.273C205.813 222.957 199.899 222.646 194.173 223.824C192.411 224.141 190.707 224.728 189.124 225.564C187.816 226.298 186.936 227.352 185.722 225.995C183.59 223.613 182.41 219.234 185.226 217.033Z" fill="#2F2E41"/>
<path d="M199.772 221.184C199.772 221.184 212.397 215.525 217.186 222.055C221.975 228.585 214.574 225.973 214.574 225.973L206.302 228.585L197.16 226.844L199.772 221.184Z" fill="#F2F2F2"/>
<path d="M200.425 217.048C200.425 217.048 202.166 225.32 200.86 227.497C199.554 229.674 208.261 232.721 208.261 232.721L216.533 229.238C216.533 229.238 214.356 215.742 216.533 213.13L200.425 217.048Z" fill="#FFB9B9"/>
<path opacity="0.1" d="M200.425 217.048C200.425 217.048 202.166 225.32 200.86 227.497C199.554 229.674 208.261 232.721 208.261 232.721L216.533 229.238C216.533 229.238 214.356 215.742 216.533 213.13L200.425 217.048Z" fill="black"/>
<path d="M192.267 316.511C193.438 318.938 194.4 321.46 195.144 324.05C195.156 324.136 195.186 324.218 195.232 324.291C195.279 324.364 195.34 324.426 195.411 324.474C195.483 324.522 195.565 324.554 195.65 324.569C195.735 324.583 195.822 324.579 195.906 324.557L203.65 324.548C204.605 324.547 205.888 324.24 205.878 323.285C205.871 322.613 205.184 322.195 204.674 321.759C203.256 320.549 202.887 318.555 202.3 316.786C201.159 313.379 198.96 310.426 196.023 308.356C195.626 308.045 195.169 307.819 194.681 307.692C194.19 307.621 193.69 307.648 193.21 307.772C191.85 308.046 186.774 308.985 187.733 310.962C188.146 311.813 189.676 312.7 190.318 313.495C191.065 314.434 191.718 315.444 192.267 316.511Z" fill="#575A89"/>
<path d="M219.195 307.53C218.922 308.103 218.618 308.662 218.285 309.203C217.163 311.053 215.839 312.779 214.794 314.674C214.09 315.832 213.655 317.133 213.522 318.482C213.463 319.156 213.566 319.835 213.823 320.461C214.08 321.087 214.484 321.642 215 322.08C216.124 322.933 217.665 322.972 219.063 322.774C220.46 322.575 221.849 322.174 223.256 322.28C222.781 319.595 225.046 317.232 225.612 314.565C225.771 313.816 225.795 313.039 226.008 312.304C226.237 311.631 226.531 310.982 226.884 310.366C228.012 308.17 228.809 305.82 229.249 303.391C229.303 303.096 222.366 303.048 221.715 303.189C219.684 303.628 219.981 305.846 219.195 307.53Z" fill="#575A89"/>
<path d="M165.729 265.351C163.749 268.45 164.205 272.556 165.596 275.961C166.987 279.365 169.2 282.375 170.715 285.726C171.681 287.863 172.359 290.128 173.446 292.205C174.793 294.777 176.76 297.044 177.663 299.803C178.24 301.562 178.372 303.489 179.305 305.088C179.869 305.942 180.513 306.74 181.228 307.473C183.238 309.776 184.747 312.472 185.66 315.389C186.513 312.848 189.067 311.182 191.69 310.633C194.313 310.083 197.032 310.457 199.686 310.831C198.205 308.538 196.71 306.215 195.828 303.632C194.974 301.134 194.723 298.476 194.148 295.899C192.969 290.615 190.45 285.742 187.957 280.936L200.772 279.919C202.864 279.709 204.967 279.631 207.069 279.686C210.377 279.842 213.617 280.653 216.907 281.027C220.198 281.402 223.678 281.304 226.61 279.765C221.004 287.81 218.084 297.421 218.268 307.225C219.521 306.254 220.975 305.576 222.525 305.24C224.074 304.904 225.679 304.918 227.222 305.282C228.764 305.646 230.206 306.351 231.442 307.344C232.677 308.338 233.675 309.595 234.362 311.024C239.384 304.16 238.787 294.606 242.767 287.09C243.585 285.545 244.588 284.105 245.471 282.596C247.14 279.564 248.569 276.407 249.744 273.153C250.857 270.305 251.979 267.137 250.911 264.273C250.468 263.186 249.822 262.193 249.009 261.347C246.712 258.816 243.516 256.943 240.1 256.865C234.854 256.745 230.521 260.633 225.92 263.154C220.427 266.074 214.214 267.362 208.014 266.868C201.694 266.42 195.657 264.351 189.636 262.53C186.624 261.576 183.562 260.786 180.464 260.164C177.882 259.679 175.423 260.216 172.878 260.876C170.108 261.595 167.323 262.855 165.729 265.351Z" fill="#2F2E41"/>
<path d="M220.451 208.777C220.449 212.24 219.072 215.56 216.623 218.009C214.174 220.457 210.854 221.834 207.391 221.837C206.612 221.839 205.836 221.769 205.07 221.628C202.626 221.187 200.358 220.058 198.533 218.373C196.708 216.688 195.401 214.518 194.766 212.117C194.13 209.716 194.193 207.183 194.946 204.816C195.699 202.449 197.111 200.346 199.017 198.754C200.923 197.161 203.244 196.145 205.707 195.825C208.17 195.505 210.673 195.893 212.923 196.945C215.173 197.997 217.077 199.669 218.41 201.765C219.743 203.86 220.452 206.293 220.451 208.777V208.777Z" fill="#FFB9B9"/>
<path d="M199.772 221.184C199.772 221.184 202.166 222.273 203.037 223.143C203.908 224.014 206.52 228.803 210.874 225.755C215.227 222.708 215.662 220.966 216.969 220.966C218.275 220.966 220.016 223.579 220.016 223.579L231.988 259.496C228.762 263.138 225.022 266.291 220.887 268.856C213.921 273.209 205.649 275.386 201.731 273.645C197.813 271.903 190.412 270.597 189.106 267.114C187.8 263.631 185.623 253.183 185.623 253.183L191.718 226.626L199.772 221.184Z" fill="#F2F2F2"/>
<path d="M198.091 257.51C199.04 255.459 199.178 253.139 199.258 250.881C199.386 248.645 199.327 246.402 199.081 244.175C198.695 241.263 197.747 238.458 197.148 235.582C196.623 233.059 196.368 230.488 196.387 227.912C196.396 226.736 196.481 225.499 197.121 224.513C197.568 223.825 198.267 223.293 198.546 222.522C199.094 221.01 197.741 219.426 196.258 218.804C194.453 218.127 192.477 218.047 190.623 218.577C188.783 219.109 187.006 219.836 185.322 220.746C184.048 221.289 182.876 222.047 181.858 222.985C180.507 224.384 179.912 226.331 179.432 228.216C179.048 229.724 178.707 231.297 178.999 232.826C179.474 235.309 181.498 237.176 182.577 239.462C183.829 242.116 183.745 245.209 183.247 248.101C182.748 250.994 181.864 253.822 181.591 256.744C181.318 259.667 181.737 262.808 183.568 265.102C184.314 266.037 186.338 268.252 187.704 268.002C188.777 267.805 190.333 265.443 191.197 264.694C193.694 262.531 196.657 260.607 198.091 257.51Z" fill="#2F2E41"/>
<path d="M220.901 219.764C220.939 222.193 219.868 224.501 218.61 226.577C217.351 228.654 215.872 230.618 214.945 232.862C213.792 235.672 213.557 238.774 214.272 241.725C214.538 242.73 214.859 243.72 215.233 244.69L217.618 251.233C217.939 252.262 218.405 253.24 219.001 254.137C219.541 254.825 220.173 255.433 220.881 255.946C222.693 257.409 224.778 258.496 227.015 259.145C229.267 259.789 231.671 259.652 233.835 258.756C234.065 249.886 235.49 241.088 238.072 232.599C238.548 231.032 239.07 229.382 238.702 227.786C238.29 225.998 236.854 224.656 235.488 223.43C231.313 219.681 226.722 215.743 221.134 215.237C217.9 214.945 220.873 218.009 220.901 219.764Z" fill="#2F2E41"/>
<path d="M192.33 270.381C192.662 271.029 192.868 271.735 193.195 272.385C193.678 273.257 194.276 274.06 194.971 274.774C197.882 278.001 201.441 281.217 205.783 281.412C206.214 281.452 206.649 281.397 207.057 281.251C207.424 281.063 207.74 280.788 207.976 280.45C208.212 280.112 208.362 279.722 208.413 279.312C208.721 277.626 207.977 275.944 207.232 274.401C205.616 271.055 203.799 267.626 200.775 265.468C199.265 264.434 197.541 263.755 195.73 263.482C193.92 263.21 192.072 263.351 190.325 263.896C188.749 264.381 186.138 265.228 188.223 266.665C189.805 267.756 191.413 268.586 192.33 270.381Z" fill="#FFB9B9"/>
<path d="M211.1 227.794C210.647 226.57 209.952 225.449 209.057 224.499C208.154 223.736 207.086 223.195 205.936 222.918C204.447 222.493 202.907 222.272 201.358 222.262C199.514 222.251 197.376 222.745 196.593 224.414C195.972 225.74 196.454 227.31 197.08 228.633C197.347 229.319 197.793 229.921 198.37 230.377C199.165 230.914 200.194 230.897 201.136 231.077C202.598 231.448 203.982 232.075 205.224 232.93L208.454 234.882L214.001 238.234C213.854 238.146 213.906 234.342 213.736 233.719C213.187 231.711 211.952 229.695 211.1 227.794Z" fill="#FFB9B9"/>
<path d="M194.942 323.065C193.644 324.828 193.905 327.35 192.755 329.213C191.758 330.829 189.88 331.676 188.634 333.108C188.236 333.583 187.881 334.093 187.574 334.632C186.418 336.569 185.478 339.051 186.617 340.998C187.533 342.565 189.458 343.177 191.224 343.594C193.457 344.122 195.776 344.544 198.034 344.141C200.292 343.738 202.499 342.355 203.304 340.207C203.462 339.667 203.65 339.137 203.867 338.617C205.091 336.208 208.93 336.182 210.182 333.787C211.059 332.112 210.253 330.086 209.448 328.375L206.988 323.149C206.171 321.415 202.862 322.412 201.137 321.996C198.887 321.454 196.561 320.857 194.942 323.065Z" fill="#2F2E41"/>
<path d="M213.969 318.575C212.962 319.368 212.192 320.423 211.743 321.624C210.526 324.433 210.108 327.512 209.702 330.546C209.47 331.753 209.447 332.99 209.631 334.205C210.156 336.683 212.401 338.508 214.818 339.266C217.235 340.023 219.827 339.907 222.357 339.782C223.173 339.803 223.984 339.639 224.727 339.301C225.998 338.6 226.495 336.952 226.277 335.517C226.059 334.081 225.275 332.804 224.507 331.572C223.74 330.34 222.955 329.063 222.735 327.628C222.365 325.214 223.409 321.671 221.926 319.487C220.439 317.298 215.953 317.185 213.969 318.575Z" fill="#2F2E41"/>
<path d="M220.123 201.97C219.891 201.189 219.379 200.521 218.685 200.093C218.721 199.256 218.618 198.42 218.381 197.616C217.59 195.278 215.717 195.412 213.949 194.378C213.182 193.93 213.229 193.533 212.83 192.797C212.307 191.831 211.523 191.031 210.568 190.489C209.434 189.766 208.236 189.022 206.895 188.93C204.075 188.738 201.913 191.39 199.218 192.242C198.03 192.617 196.753 192.632 195.559 192.987C194.365 193.342 193.174 194.188 192.996 195.421C192.913 195.991 193.058 196.575 192.975 197.144C192.809 198.275 191.817 199.067 191.153 199.997C189.684 202.054 189.852 204.961 191.027 207.199C191.274 207.662 191.557 208.105 191.874 208.524C191.972 209.582 192.275 210.611 192.768 211.553C193.943 213.791 195.964 215.463 198.076 216.853C197.903 216.111 197.798 215.354 197.763 214.593C197.733 214.339 197.766 214.082 197.859 213.844C198.094 213.352 198.715 213.222 199.189 212.952C200.17 212.395 200.555 211.161 200.584 210.032C200.612 208.904 200.373 207.774 200.491 206.651C200.496 206.393 200.554 206.139 200.663 205.905C200.772 205.671 200.929 205.462 201.123 205.292C201.486 205.086 201.899 204.987 202.316 205.008C204.326 204.926 206.427 204.889 208.201 203.938C208.773 203.558 209.387 203.247 210.032 203.012C211.539 202.619 213.08 203.675 213.948 204.968C214.817 206.261 215.25 207.799 216.052 209.135C216.853 210.471 218.237 211.662 219.787 211.503C219.874 211.504 219.961 211.485 220.04 211.45C220.12 211.414 220.191 211.363 220.25 211.298C220.317 211.178 220.346 211.04 220.335 210.903L220.422 204.98C220.493 203.967 220.392 202.949 220.123 201.97Z" fill="#2F2E41"/>
<path d="M178.79 232.952C177.544 234.791 176.107 236.558 175.422 238.671C175.019 239.913 174.894 241.225 174.603 242.498C173.632 246.736 170.827 250.501 170.545 254.839C170.446 255.804 170.588 256.777 170.957 257.673C171.762 259.423 173.687 260.346 175.524 260.926C177.361 261.506 179.333 261.924 180.799 263.173C181.538 263.881 182.207 264.657 182.798 265.491C185.19 268.466 188.408 270.667 192.048 271.819C191.76 269.838 191.625 267.45 193.209 266.226C194.066 265.563 195.211 265.445 196.291 265.352L201.392 264.911C197.99 261.612 194.241 258.691 190.21 256.2C188.799 255.329 187.264 254.409 186.62 252.882C186.287 251.897 186.149 250.858 186.213 249.82C186.178 246.027 185.857 242.241 185.252 238.496C184.832 235.895 184.276 233.318 183.64 230.761C183.462 230.044 182.407 226.825 181.108 227.578C180.802 227.755 180.516 229.797 180.337 230.221C179.912 231.18 179.394 232.095 178.79 232.952V232.952Z" fill="#2F2E41"/>
<path d="M237.541 226.005L239.624 230.337C240.628 232.119 241.085 234.156 240.938 236.195L241.061 249.191C241.157 250.927 241.014 252.669 240.634 254.366C240.504 254.925 240.26 255.451 239.916 255.911C239.562 256.307 239.146 256.643 238.684 256.903C234.741 259.367 229.629 260.767 225.464 258.703C224.51 258.194 223.603 257.602 222.753 256.933C221.093 255.704 219.409 254.451 218.167 252.8C216.867 251.072 216.122 249.004 215.248 247.027C213.678 243.48 211.651 240.154 209.216 237.134C208.813 236.735 208.551 236.215 208.469 235.654C208.444 234.515 209.795 233.954 210.849 233.521C212.649 232.78 214.347 231.352 214.648 229.428C218.476 234.449 222.701 239.753 228.742 241.587C228.836 241.648 228.946 241.682 229.058 241.685C229.17 241.688 229.282 241.661 229.38 241.607C229.478 241.552 229.56 241.472 229.616 241.375C229.673 241.278 229.702 241.167 229.7 241.054C230.043 239.62 230.164 238.142 230.415 236.689C230.875 234.042 231.761 231.487 233.039 229.123C233.754 227.798 236.071 222.947 237.541 226.005Z" fill="#2F2E41"/>
<path opacity="0.1" d="M185.849 238.533C185.906 241.609 185.253 244.656 183.94 247.437C183.598 248.052 183.346 248.712 183.192 249.399C182.964 250.862 183.797 252.279 184.749 253.414C186.627 255.646 189.063 257.341 191.809 258.326" fill="black"/>
<path opacity="0.1" d="M231.083 235.941C230.776 236.767 231.055 237.679 231.291 238.528C231.977 240.988 232.297 243.536 232.241 246.089C232.251 246.134 232.25 246.18 232.237 246.224C232.225 246.268 232.202 246.309 232.17 246.341C232.138 246.374 232.098 246.398 232.054 246.412C232.011 246.426 231.964 246.428 231.919 246.419C230.914 246.481 229.764 246.487 229.082 245.746" fill="black"/>
<path opacity="0.1" d="M401.849 359.002C439.303 359.002 469.666 352.496 469.666 344.47C469.666 336.444 439.303 329.938 401.849 329.938C364.394 329.938 334.032 336.444 334.032 344.47C334.032 352.496 364.394 359.002 401.849 359.002Z" fill="black"/>
<path d="M435.758 214.755L430.914 219.6L435.758 224.444L440.602 214.755H435.758Z" fill="#A0616A"/>
<path d="M436.848 172.752C438.208 173.308 438.854 174.829 439.367 176.205L445.651 193.091L446.874 196.377C447.473 197.989 448.074 199.602 448.581 201.245C448.902 202.285 449.185 203.335 449.431 204.395C449.685 205.303 449.783 206.248 449.72 207.188C449.551 208.223 449.173 209.213 448.61 210.098C446.424 213.905 443.31 217.099 439.559 219.381C439.343 217.985 438.78 216.665 437.922 215.543C437.064 214.42 435.938 213.531 434.647 212.956L437.896 211.169C438.584 210.847 439.202 210.394 439.717 209.836C440.032 209.4 440.256 208.906 440.375 208.382C440.494 207.859 440.507 207.316 440.412 206.788C440.217 205.733 439.893 204.706 439.448 203.73C438.358 201.009 437.412 198.232 436.614 195.412C436.142 193.743 435.708 192.029 434.773 190.569C433.925 189.244 432.696 188.185 431.925 186.814C430.75 184.725 430.78 182.152 431.299 179.812C431.737 177.836 432.471 175.935 433.089 174.011C433.575 172.5 435.393 172.156 436.848 172.752Z" fill="#D0CDE1"/>
<path d="M406.889 127.639C404.39 128.483 402.127 130.456 401.615 133.043C401.378 134.243 401.523 135.489 401.324 136.696C400.861 139.493 398.665 141.629 396.64 143.613C394.615 145.597 392.523 147.903 392.376 150.734C392.214 153.835 394.462 156.739 394.073 159.819C393.621 163.398 389.842 165.717 388.907 169.201C388.283 171.527 389.048 174.033 390.306 176.087C392.703 180.001 396.8 182.658 401.163 184.083C405.526 185.507 410.172 185.807 414.762 185.855C420.35 185.913 426.417 185.434 430.616 181.746C433.014 179.62 434.52 176.666 434.832 173.477C435.231 169.205 433.448 164.791 434.678 160.68C435.452 158.093 437.393 155.73 437.104 153.045C436.82 150.42 434.528 148.56 432.955 146.439C431.486 144.459 430.595 142.121 429.722 139.816L426.734 131.928C426.146 130.377 425.501 128.747 424.192 127.729C421.741 125.824 417.801 126.198 414.935 126.591C412.276 126.956 409.446 126.775 406.889 127.639Z" fill="#2F2E41"/>
<path d="M409.201 153.633C409.201 153.633 409.493 162.408 408.616 163.285C407.738 164.162 412.125 170.012 412.125 170.012L420.022 169.72L424.117 166.502L420.607 161.823C420.607 161.823 419.145 154.218 420.315 152.463C421.485 150.708 409.201 153.633 409.201 153.633Z" fill="#A0616A"/>
<path opacity="0.1" d="M409.201 153.633C409.201 153.633 409.493 162.408 408.616 163.285C407.738 164.162 412.125 170.012 412.125 170.012L420.022 169.72L424.117 166.502L420.607 161.823C420.607 161.823 419.145 154.218 420.315 152.463C421.485 150.708 409.201 153.633 409.201 153.633Z" fill="black"/>
<path d="M390.92 221.343L395.892 232.457L399.695 227.777L392.09 217.833L390.92 221.343Z" fill="#A0616A"/>
<path d="M377.612 332.633L375.565 344.04L372.055 349.012L374.103 350.182L377.612 349.597L381.707 348.134L383.462 341.408L386.68 332.633H377.612Z" fill="#A0616A"/>
<path d="M415.05 325.613L413.88 341.993L416.805 344.332L421.485 340.238V328.246L415.05 325.613Z" fill="#A0616A"/>
<path d="M414.027 156.997C419.842 156.997 424.556 152.282 424.556 146.467C424.556 140.652 419.842 135.938 414.027 135.938C408.211 135.938 403.497 140.652 403.497 146.467C403.497 152.282 408.211 156.997 414.027 156.997Z" fill="#A0616A"/>
<path d="M422.152 160.629C421.836 160.477 421.492 160.395 421.141 160.389C420.791 160.382 420.444 160.451 420.123 160.59C419.484 160.873 418.864 161.196 418.266 161.558C416.729 162.357 414.987 162.674 413.267 162.467C413.065 162.452 412.868 162.401 412.683 162.317C412.488 162.195 412.308 162.05 412.148 161.885C411.524 161.378 410.728 161.133 409.928 161.202C409.127 161.271 408.385 161.649 407.857 162.254C407.548 162.64 407.336 163.1 406.999 163.461C406.125 164.395 404.683 164.433 403.403 164.431C400.75 164.357 398.097 164.6 395.502 165.155C392.895 165.718 390.494 166.99 388.564 168.831C388.037 169.327 387.618 169.925 387.332 170.589C386.979 171.499 387.025 172.521 386.708 173.444C386.355 174.472 385.572 175.315 385.256 176.355C385.017 177.139 385.05 178.01 384.651 178.725C386.36 180.205 387.808 182.178 389.518 183.657C390.649 184.637 391.834 185.696 392.26 187.131C392.451 188.016 392.536 188.921 392.513 189.826C392.724 194.152 395.071 198.077 397.695 201.523C398.414 202.545 399.275 203.46 400.252 204.24C401.578 205.143 403.084 205.748 404.666 206.012C407.654 206.624 410.73 206.621 413.78 206.59C416.931 206.559 420.139 206.492 423.135 205.513C424.66 205.087 426.031 204.235 427.089 203.057C428.321 201.544 428.802 199.354 430.483 198.363C430.89 198.176 431.276 197.946 431.633 197.676C431.976 197.304 432.218 196.852 432.338 196.361C432.926 194.524 433.25 192.613 433.3 190.685C433.257 189.528 433.335 188.369 433.534 187.228C433.825 186.223 434.249 185.261 434.794 184.368L438.278 178.05C438.561 177.536 438.488 176.78 438.513 176.194C438.488 175.35 438.228 174.529 437.764 173.822C435.504 169.828 431.954 166.721 427.697 165.01C427.361 164.895 427.041 164.739 426.746 164.544C426.397 164.251 426.103 163.899 425.875 163.505C424.951 162.112 423.821 160.542 422.152 160.629Z" fill="#D0CDE1"/>
<path d="M378.729 195.042C378.042 196.712 377.538 198.452 377.225 200.231C376.888 202.689 377.285 205.191 378.364 207.424C380.241 211.289 383.938 213.91 386.547 217.324C388.971 220.496 390.414 224.298 392.513 227.694C392.147 226.83 392.592 225.829 393.191 225.106C393.79 224.383 394.556 223.784 394.995 222.954C395.294 222.312 395.482 221.623 395.551 220.918C395.864 218.812 396.033 216.524 394.96 214.686C394.152 213.302 392.756 212.383 391.651 211.223C390.545 210.042 389.733 208.618 389.279 207.066C388.825 205.514 388.742 203.876 389.037 202.286C389.25 201.192 389.641 200.141 389.934 199.065C390.297 197.619 390.571 196.152 390.756 194.673L392.073 185.626C392.424 183.22 392.72 180.557 391.357 178.544C391.091 178.122 390.724 177.774 390.288 177.532C389.928 177.367 389.544 177.259 389.151 177.212C387.717 176.977 385.775 176.35 385.076 177.886C384.231 179.74 383.643 181.76 382.935 183.672L378.729 195.042Z" fill="#D0CDE1"/>
<path d="M428.928 199.992C428.928 199.992 411.54 203.355 407.446 203.355H400.134C400.134 203.355 397.501 208.035 397.501 212.715C397.501 217.394 380.245 282.911 380.245 282.911C380.245 282.911 363.866 336.728 382 337.02C400.134 337.313 411.54 338.19 411.833 332.048C412.125 325.906 413.88 246.643 413.88 246.643L416.61 287.4C417.344 297.489 416.561 307.632 414.286 317.49C412.976 323.016 413.18 329.074 419.73 330.293C432.307 332.633 448.101 330.586 448.101 326.198C448.101 321.811 439.911 224.414 439.911 224.414C439.911 224.414 435.817 210.082 433.477 208.912C431.137 207.743 428.928 199.992 428.928 199.992Z" fill="#2F2E41"/>
<path d="M374.395 348.427L380.83 346.087L385.217 334.973L389.897 334.388C389.897 334.388 387.264 339.945 385.802 340.822C384.339 341.7 382 349.012 382 349.012C382 349.012 383.17 351.937 377.612 353.107C372.055 354.277 367.96 355.154 367.96 355.154C367.96 355.154 367.375 353.984 370.008 351.059C372.64 348.135 375.714 343.211 375.714 343.211L374.395 348.427Z" fill="#2F2E41"/>
<path d="M413.88 334.973L412.71 343.747C412.71 343.747 415.928 348.427 416.805 348.427C417.683 348.427 422.362 344.332 422.362 344.332C422.362 344.332 422.07 339.945 422.362 338.775C422.655 337.605 423.24 332.048 422.362 331.755C421.485 331.463 421.485 338.274 421.485 338.274L417.683 342.285L414.016 340.087L413.88 334.973Z" fill="#2F2E41"/>
<path d="M414.904 146.467C421.204 146.467 426.311 143.717 426.311 140.325C426.311 136.933 421.204 134.183 414.904 134.183C408.604 134.183 403.497 136.933 403.497 140.325C403.497 143.717 408.604 146.467 414.904 146.467Z" fill="#2F2E41"/>
<path d="M0 260.86C0 295.316 21.6156 323.197 48.3284 323.197Z" fill="#3F3D56"/>
<path d="M48.3284 323.197C48.3284 288.354 72.4501 260.16 102.26 260.16Z" fill="#C0A3FF"/>
<path d="M17.5103 263.984C17.5103 296.713 31.2942 323.197 48.3284 323.197Z" fill="#C0A3FF"/>
<path d="M48.3284 323.197C48.3284 278.675 76.2094 242.649 110.665 242.649Z" fill="#3F3D56"/>
<path d="M38.1613 323.636C38.1613 323.636 45.0151 323.425 47.0806 321.954C49.1462 320.483 57.6234 318.727 58.1359 321.086C58.6483 323.445 68.4358 332.818 60.6979 332.881C52.9601 332.943 42.7186 331.675 40.657 330.419C38.5954 329.164 38.1613 323.636 38.1613 323.636Z" fill="#A8A8A8"/>
<path opacity="0.2" d="M60.836 332.059C53.0981 332.122 42.8567 330.854 40.7951 329.598C39.2251 328.642 38.5995 325.21 38.3901 323.627C38.2452 323.633 38.1613 323.636 38.1613 323.636C38.1613 323.636 38.5954 329.164 40.657 330.42C42.7186 331.675 52.9601 332.943 60.6979 332.881C62.9315 332.863 63.7031 332.068 63.6607 330.891C63.3504 331.602 62.4985 332.046 60.836 332.059Z" fill="black"/>
</g>
<defs>
<clipPath id="clip0_6:150">
<rect width="557.937" height="407.981" fill="white"/>
</clipPath>
</defs>
</svg>
